<?xml version="1.0" standalone="yes"?>

<svg version="1.1" viewBox="0.0 0.0 800.0 600.0" fill="none" stroke="none" stroke-linecap="square" stroke-miterlimit="10" xmlns="http://www.w3.org/2000/svg" xmlns:xlink="http://www.w3.org/1999/xlink"><clipPath id="p.0"><path d="m0 0l800.0 0l0 600.0l-800.0 0l0 -600.0z" clip-rule="nonzero"></path></clipPath><g clip-path="url(#p.0)"><path fill="#000000" fill-opacity="0.0" d="m0 0l800.0 0l0 600.0l-800.0 0z" fill-rule="nonzero"></path><path fill="#000000" fill-opacity="0.0" d="m184.5328 164.04745l261.22836 0l0 246.14172l-261.22836 0z" fill-rule="nonzero"></path><path stroke="#000000" stroke-width="1.0" stroke-linejoin="round" stroke-linecap="butt" stroke-dasharray="4.0,3.0" d="m184.5328 164.04745l261.22836 0l0 246.14172l-261.22836 0z" fill-rule="nonzero"></path><path fill="#cfe2f3" d="m510.86487 36.611683l0 0c0 -3.7283592 3.022461 -6.7507896 6.7507935 -6.7507896l83.38031 0c1.7904053 0 3.5075073 0.71124077 4.7734985 1.9772606c1.2660522 1.2660179 1.9772949 2.9831085 1.9772949 4.773529l0 27.002357c0 3.7283592 -3.022461 6.7507896 -6.7507935 6.7507896l-83.38031 0c-3.7283325 0 -6.7507935 -3.0224304 -6.7507935 -6.7507896z" fill-rule="nonzero"></path><path stroke="#000000" stroke-width="1.0" stroke-linejoin="round" stroke-linecap="butt" d="m510.86487 36.611683l0 0c0 -3.7283592 3.022461 -6.7507896 6.7507935 -6.7507896l83.38031 0c1.7904053 0 3.5075073 0.71124077 4.7734985 1.9772606c1.2660522 1.2660179 1.9772949 2.9831085 1.9772949 4.773529l0 27.002357c0 3.7283592 -3.022461 6.7507896 -6.7507935 6.7507896l-83.38031 0c-3.7283325 0 -6.7507935 -3.0224304 -6.7507935 -6.7507896z" fill-rule="nonzero"></path><path fill="#000000" d="m535.21106 54.91286l3.578125 -9.3125l1.3125 0l3.8125 9.3125l-1.40625 0l-1.078125 -2.8125l-3.890625 0l-1.03125 2.8125l-1.296875 0zm2.6875 -3.828125l3.15625 0l-0.984375 -2.578125q-0.4375 -1.171875 -0.65625 -1.921875q-0.171875 0.890625 -0.5 1.78125l-1.015625 2.71875zm11.467834 1.359375l1.125 0.140625q-0.171875 1.171875 -0.9375 1.828125q-0.765625 0.65625 -1.859375 0.65625q-1.390625 0 -2.234375 -0.90625q-0.828125 -0.90625 -0.828125 -2.59375q0 -1.09375 0.359375 -1.90625q0.359375 -0.828125 1.09375 -1.234375q0.734375 -0.40625 1.609375 -0.40625q1.09375 0 1.796875 0.5625q0.703125 0.546875 0.890625 1.5625l-1.109375 0.171875q-0.15625 -0.671875 -0.5625 -1.015625q-0.390625 -0.34375 -0.96875 -0.34375q-0.859375 0 -1.40625 0.625q-0.53125 0.609375 -0.53125 1.953125q0 1.359375 0.515625 1.984375q0.515625 0.609375 1.359375 0.609375q0.671875 0 1.125 -0.40625q0.453125 -0.421875 0.5625 -1.28125zm6.6640625 0l1.125 0.140625q-0.171875 1.171875 -0.9375 1.828125q-0.765625 0.65625 -1.859375 0.65625q-1.390625 0 -2.234375 -0.90625q-0.828125 -0.90625 -0.828125 -2.59375q0 -1.09375 0.359375 -1.90625q0.359375 -0.828125 1.09375 -1.234375q0.734375 -0.40625 1.609375 -0.40625q1.09375 0 1.796875 0.5625q0.703125 0.546875 0.890625 1.5625l-1.109375 0.171875q-0.15625 -0.671875 -0.5625 -1.015625q-0.390625 -0.34375 -0.96875 -0.34375q-0.859375 0 -1.40625 0.625q-0.53125 0.609375 -0.53125 1.953125q0 1.359375 0.515625 1.984375q0.515625 0.609375 1.359375 0.609375q0.671875 0 1.125 -0.40625q0.453125 -0.421875 0.5625 -1.28125zm1.8515625 -0.90625q0 -1.875 1.03125 -2.765625q0.875 -0.75 2.125 -0.75q1.390625 0 2.265625 0.90625q0.890625 0.90625 0.890625 2.515625q0 1.296875 -0.390625 2.046875q-0.390625 0.75 -1.140625 1.171875q-0.75 0.40625 -1.625 0.40625q-1.421875 0 -2.296875 -0.90625q-0.859375 -0.90625 -0.859375 -2.625zm1.171875 0q0 1.296875 0.5625 1.953125q0.5625 0.640625 1.421875 0.640625q0.84375 0 1.40625 -0.640625q0.578125 -0.65625 0.578125 -1.984375q0 -1.25 -0.578125 -1.890625q-0.5625 -0.65625 -1.40625 -0.65625q-0.859375 0 -1.421875 0.640625q-0.5625 0.640625 -0.5625 1.9375zm11.084351 3.375l0 -0.984375q-0.796875 1.140625 -2.140625 1.140625q-0.59375 0 -1.125 -0.234375q-0.515625 -0.234375 -0.765625 -0.578125q-0.25 -0.34375 -0.34375 -0.84375q-0.078125 -0.328125 -0.078125 -1.0625l0 -4.171875l1.140625 0l0 3.734375q0 0.890625 0.078125 1.203125q0.109375 0.453125 0.453125 0.71875q0.34375 0.25 0.859375 0.25q0.515625 0 0.96875 -0.265625q0.453125 -0.265625 0.640625 -0.71875q0.1875 -0.453125 0.1875 -1.3125l0 -3.609375l1.140625 0l0 6.734375l-1.015625 0zm2.9906006 0l0 -6.734375l1.03125 0l0 0.953125q0.734375 -1.109375 2.140625 -1.109375q0.609375 0 1.109375 0.21875q0.515625 0.21875 0.765625 0.578125q0.265625 0.34375 0.359375 0.84375q0.0625 0.3125 0.0625 1.109375l0 4.140625l-1.140625 0l0 -4.09375q0 -0.703125 -0.140625 -1.046875q-0.125 -0.34375 -0.46875 -0.546875q-0.328125 -0.21875 -0.78125 -0.21875q-0.734375 0 -1.265625 0.46875q-0.53125 0.453125 -0.53125 1.75l0 3.6875l-1.140625 0zm9.912476 -1.015625l0.15625 1.0q-0.484375 0.109375 -0.859375 0.109375q-0.625 0 -0.96875 -0.203125q-0.34375 -0.203125 -0.484375 -0.515625q-0.140625 -0.328125 -0.140625 -1.34375l0 -3.890625l-0.828125 0l0 -0.875l0.828125 0l0 -1.671875l1.140625 -0.6875l0 2.359375l1.15625 0l0 0.875l-1.15625 0l0 3.953125q0 0.484375 0.0625 0.625q0.0625 0.140625 0.1875 0.21875q0.140625 0.078125 0.390625 0.078125q0.203125 0 0.515625 -0.03125z" fill-rule="nonzero"></path><path fill="#cfe2f3" d="m389.38116 113.6306l0 0c0 -3.728363 3.0224304 -6.7507935 6.7507935 -6.7507935l83.38028 0c1.7904358 0 3.5075073 0.7112427 4.773529 1.9772644c1.2660217 1.2660141 1.9772644 2.9831085 1.9772644 4.773529l0 27.00235c0 3.728363 -3.0224304 6.7507935 -6.7507935 6.7507935l-83.38028 0c-3.728363 0 -6.7507935 -3.0224304 -6.7507935 -6.7507935z" fill-rule="nonzero"></path><path stroke="#000000" stroke-width="1.0" stroke-linejoin="round" stroke-linecap="butt" d="m389.38116 113.6306l0 0c0 -3.728363 3.0224304 -6.7507935 6.7507935 -6.7507935l83.38028 0c1.7904358 0 3.5075073 0.7112427 4.773529 1.9772644c1.2660217 1.2660141 1.9772644 2.9831085 1.9772644 4.773529l0 27.00235c0 3.728363 -3.0224304 6.7507935 -6.7507935 6.7507935l-83.38028 0c-3.728363 0 -6.7507935 -3.0224304 -6.7507935 -6.7507935z" fill-rule="nonzero"></path><path fill="#000000" d="m408.839 131.93178l0 -9.3125l6.71875 0l0 1.109375l-5.484375 0l0 2.84375l5.140625 0l0 1.09375l-5.140625 0l0 3.171875l5.703125 0l0 1.09375l-6.9375 0zm8.7178955 0l0 -6.734375l1.03125 0l0 0.953125q0.734375 -1.109375 2.140625 -1.109375q0.609375 0 1.109375 0.21875q0.515625 0.21875 0.765625 0.578125q0.265625 0.34375 0.359375 0.84375q0.0625 0.3125 0.0625 1.109375l0 4.140625l-1.140625 0l0 -4.09375q0 -0.703125 -0.140625 -1.046875q-0.125 -0.34375 -0.46875 -0.546875q-0.328125 -0.21875 -0.78125 -0.21875q-0.734375 0 -1.265625 0.46875q-0.53125 0.453125 -0.53125 1.75l0 3.6875l-1.140625 0zm11.787476 0l0 -0.84375q-0.640625 1.0 -1.890625 1.0q-0.796875 0 -1.484375 -0.4375q-0.671875 -0.453125 -1.046875 -1.25q-0.375 -0.796875 -0.375 -1.828125q0 -1.015625 0.34375 -1.828125q0.34375 -0.828125 1.015625 -1.265625q0.671875 -0.4375 1.5 -0.4375q0.609375 0 1.078125 0.265625q0.484375 0.25 0.78125 0.65625l0 -3.34375l1.140625 0l0 9.3125l-1.0625 0zm-3.609375 -3.359375q0 1.296875 0.53125 1.9375q0.546875 0.640625 1.296875 0.640625q0.75 0 1.265625 -0.609375q0.53125 -0.625 0.53125 -1.875q0 -1.390625 -0.53125 -2.03125q-0.53125 -0.65625 -1.3125 -0.65625q-0.765625 0 -1.28125 0.625q-0.5 0.625 -0.5 1.96875zm6.6468506 5.9375l0 -9.3125l1.03125 0l0 0.875q0.375 -0.515625 0.828125 -0.765625q0.46875 -0.265625 1.140625 -0.265625q0.859375 0 1.515625 0.453125q0.65625 0.4375 0.984375 1.25q0.34375 0.796875 0.34375 1.765625q0 1.03125 -0.375 1.859375q-0.359375 0.828125 -1.078125 1.28125q-0.703125 0.4375 -1.484375 0.4375q-0.5625 0 -1.015625 -0.234375q-0.453125 -0.25 -0.75 -0.625l0 3.28125l-1.140625 0zm1.03125 -5.90625q0 1.296875 0.53125 1.921875q0.53125 0.625 1.265625 0.625q0.765625 0 1.3125 -0.640625q0.546875 -0.65625 0.546875 -2.0q0 -1.296875 -0.53125 -1.9375q-0.53125 -0.640625 -1.265625 -0.640625q-0.734375 0 -1.296875 0.6875q-0.5625 0.671875 -0.5625 1.984375zm5.9593506 -0.046875q0 -1.875 1.03125 -2.765625q0.875 -0.75 2.125 -0.75q1.390625 0 2.265625 0.90625q0.890625 0.90625 0.890625 2.515625q0 1.296875 -0.390625 2.046875q-0.390625 0.75 -1.140625 1.171875q-0.75 0.40625 -1.625 0.40625q-1.421875 0 -2.296875 -0.90625q-0.859375 -0.90625 -0.859375 -2.625zm1.171875 0q0 1.296875 0.5625 1.953125q0.5625 0.640625 1.421875 0.640625q0.84375 0 1.40625 -0.640625q0.578125 -0.65625 0.578125 -1.984375q0 -1.25 -0.578125 -1.890625q-0.5625 -0.65625 -1.40625 -0.65625q-0.859375 0 -1.421875 0.640625q-0.5625 0.640625 -0.5625 1.9375zm6.6624756 -4.609375l0 -1.328125l1.140625 0l0 1.328125l-1.140625 0zm0 7.984375l0 -6.734375l1.140625 0l0 6.734375l-1.140625 0zm2.96109 0l0 -6.734375l1.03125 0l0 0.953125q0.734375 -1.109375 2.140625 -1.109375q0.609375 0 1.109375 0.21875q0.515625 0.21875 0.765625 0.578125q0.265625 0.34375 0.359375 0.84375q0.0625 0.3125 0.0625 1.109375l0 4.140625l-1.140625 0l0 -4.09375q0 -0.703125 -0.140625 -1.046875q-0.125 -0.34375 -0.46875 -0.546875q-0.328125 -0.21875 -0.78125 -0.21875q-0.734375 0 -1.265625 0.46875q-0.53125 0.453125 -0.53125 1.75l0 3.6875l-1.140625 0zm9.912476 -1.015625l0.15625 1.0q-0.484375 0.109375 -0.859375 0.109375q-0.625 0 -0.96875 -0.203125q-0.34375 -0.203125 -0.484375 -0.515625q-0.140625 -0.328125 -0.140625 -1.34375l0 -3.890625l-0.828125 0l0 -0.875l0.828125 0l0 -1.671875l1.140625 -0.6875l0 2.359375l1.15625 0l0 0.875l-1.15625 0l0 3.953125q0 0.484375 0.0625 0.625q0.0625 0.140625 0.1875 0.21875q0.140625 0.078125 0.390625 0.078125q0.203125 0 0.515625 -0.03125zm5.1873474 1.015625l-1.140625 0l0 -7.28125q-0.421875 0.390625 -1.09375 0.796875q-0.65625 0.390625 -1.1875 0.578125l0 -1.109375q0.953125 -0.4375 1.671875 -1.078125q0.71875 -0.640625 1.015625 -1.25l0.734375 0l0 9.34375z" fill-rule="nonzero"></path><path fill="#cfe2f3" d="m510.86487 113.6306l0 0c0 -3.728363 3.022461 -6.7507935 6.7507935 -6.7507935l83.38031 0c1.7904053 0 3.5075073 0.7112427 4.7734985 1.9772644c1.2660522 1.2660141 1.9772949 2.9831085 1.9772949 4.773529l0 27.00235c0 3.728363 -3.022461 6.7507935 -6.7507935 6.7507935l-83.38031 0c-3.7283325 0 -6.7507935 -3.0224304 -6.7507935 -6.7507935z" fill-rule="nonzero"></path><path stroke="#000000" stroke-width="1.0" stroke-linejoin="round" stroke-linecap="butt" d="m510.86487 113.6306l0 0c0 -3.728363 3.022461 -6.7507935 6.7507935 -6.7507935l83.38031 0c1.7904053 0 3.5075073 0.7112427 4.7734985 1.9772644c1.2660522 1.2660141 1.9772949 2.9831085 1.9772949 4.773529l0 27.00235c0 3.728363 -3.022461 6.7507935 -6.7507935 6.7507935l-83.38031 0c-3.7283325 0 -6.7507935 -3.0224304 -6.7507935 -6.7507935z" fill-rule="nonzero"></path><path fill="#000000" d="m530.3227 131.93178l0 -9.3125l6.71875 0l0 1.109375l-5.484375 0l0 2.84375l5.140625 0l0 1.09375l-5.140625 0l0 3.171875l5.703125 0l0 1.09375l-6.9375 0zm8.7178955 0l0 -6.734375l1.03125 0l0 0.953125q0.734375 -1.109375 2.140625 -1.109375q0.609375 0 1.109375 0.21875q0.515625 0.21875 0.765625 0.578125q0.265625 0.34375 0.359375 0.84375q0.0625 0.3125 0.0625 1.109375l0 4.140625l-1.140625 0l0 -4.09375q0 -0.703125 -0.140625 -1.046875q-0.125 -0.34375 -0.46875 -0.546875q-0.328125 -0.21875 -0.78125 -0.21875q-0.734375 0 -1.265625 0.46875q-0.53125 0.453125 -0.53125 1.75l0 3.6875l-1.140625 0zm11.787476 0l0 -0.84375q-0.640625 1.0 -1.890625 1.0q-0.796875 0 -1.484375 -0.4375q-0.671875 -0.453125 -1.046875 -1.25q-0.375 -0.796875 -0.375 -1.828125q0 -1.015625 0.34375 -1.828125q0.34375 -0.828125 1.015625 -1.265625q0.671875 -0.4375 1.5 -0.4375q0.609375 0 1.078125 0.265625q0.484375 0.25 0.78125 0.65625l0 -3.34375l1.140625 0l0 9.3125l-1.0625 0zm-3.609375 -3.359375q0 1.296875 0.53125 1.9375q0.546875 0.640625 1.296875 0.640625q0.75 0 1.265625 -0.609375q0.53125 -0.625 0.53125 -1.875q0 -1.390625 -0.53125 -2.03125q-0.53125 -0.65625 -1.3125 -0.65625q-0.765625 0 -1.28125 0.625q-0.5 0.625 -0.5 1.96875zm6.6468506 5.9375l0 -9.3125l1.03125 0l0 0.875q0.375 -0.515625 0.828125 -0.765625q0.46875 -0.265625 1.140625 -0.265625q0.859375 0 1.515625 0.453125q0.65625 0.4375 0.984375 1.25q0.34375 0.796875 0.34375 1.765625q0 1.03125 -0.375 1.859375q-0.359375 0.828125 -1.078125 1.28125q-0.703125 0.4375 -1.484375 0.4375q-0.5625 0 -1.015625 -0.234375q-0.453125 -0.25 -0.75 -0.625l0 3.28125l-1.140625 0zm1.03125 -5.90625q0 1.296875 0.53125 1.921875q0.53125 0.625 1.265625 0.625q0.765625 0 1.3125 -0.640625q0.546875 -0.65625 0.546875 -2.0q0 -1.296875 -0.53125 -1.9375q-0.53125 -0.640625 -1.265625 -0.640625q-0.734375 0 -1.296875 0.6875q-0.5625 0.671875 -0.5625 1.984375zm5.9593506 -0.046875q0 -1.875 1.03125 -2.765625q0.875 -0.75 2.125 -0.75q1.390625 0 2.265625 0.90625q0.890625 0.90625 0.890625 2.515625q0 1.296875 -0.390625 2.046875q-0.390625 0.75 -1.140625 1.171875q-0.75 0.40625 -1.625 0.40625q-1.421875 0 -2.296875 -0.90625q-0.859375 -0.90625 -0.859375 -2.625zm1.171875 0q0 1.296875 0.5625 1.953125q0.5625 0.640625 1.421875 0.640625q0.84375 0 1.40625 -0.640625q0.578125 -0.65625 0.578125 -1.984375q0 -1.25 -0.578125 -1.890625q-0.5625 -0.65625 -1.40625 -0.65625q-0.859375 0 -1.421875 0.640625q-0.5625 0.640625 -0.5625 1.9375zm6.6624756 -4.609375l0 -1.328125l1.140625 0l0 1.328125l-1.140625 0zm0 7.984375l0 -6.734375l1.140625 0l0 6.734375l-1.140625 0zm2.9611206 0l0 -6.734375l1.03125 0l0 0.953125q0.734375 -1.109375 2.140625 -1.109375q0.609375 0 1.109375 0.21875q0.515625 0.21875 0.765625 0.578125q0.265625 0.34375 0.359375 0.84375q0.0625 0.3125 0.0625 1.109375l0 4.140625l-1.140625 0l0 -4.09375q0 -0.703125 -0.140625 -1.046875q-0.125 -0.34375 -0.46875 -0.546875q-0.328125 -0.21875 -0.78125 -0.21875q-0.734375 0 -1.265625 0.46875q-0.53125 0.453125 -0.53125 1.75l0 3.6875l-1.140625 0zm9.912476 -1.015625l0.15625 1.0q-0.484375 0.109375 -0.859375 0.109375q-0.625 0 -0.96875 -0.203125q-0.34375 -0.203125 -0.484375 -0.515625q-0.140625 -0.328125 -0.140625 -1.34375l0 -3.890625l-0.828125 0l0 -0.875l0.828125 0l0 -1.671875l1.140625 -0.6875l0 2.359375l1.15625 0l0 0.875l-1.15625 0l0 3.953125q0 0.484375 0.0625 0.625q0.0625 0.140625 0.1875 0.21875q0.140625 0.078125 0.390625 0.078125q0.203125 0 0.515625 -0.03125zm6.890442 -0.078125l0 1.09375l-6.15625 0q-0.015625 -0.40625 0.140625 -0.796875q0.234375 -0.625 0.75 -1.234375q0.515625 -0.609375 1.5 -1.40625q1.515625 -1.25 2.046875 -1.96875q0.53125 -0.734375 0.53125 -1.375q0 -0.6875 -0.484375 -1.140625q-0.484375 -0.46875 -1.265625 -0.46875q-0.828125 0 -1.328125 0.5q-0.484375 0.484375 -0.5 1.359375l-1.171875 -0.125q0.125 -1.3125 0.90625 -2.0q0.78125 -0.6875 2.109375 -0.6875q1.34375 0 2.125 0.75q0.78125 0.734375 0.78125 1.828125q0 0.5625 -0.234375 1.109375q-0.21875 0.53125 -0.75 1.140625q-0.53125 0.59375 -1.765625 1.625q-1.03125 0.859375 -1.328125 1.171875q-0.28125 0.3125 -0.46875 0.625l4.5625 0z" fill-rule="nonzero"></path><path fill="#cfe2f3" d="m632.3486 113.6306l0 0c0 -3.728363 3.0224 -6.7507935 6.7507935 -6.7507935l83.38025 0c1.7904663 0 3.5075684 0.7112427 4.7735596 1.9772644c1.2659912 1.2660141 1.9772339 2.9831085 1.9772339 4.773529l0 27.00235c0 3.728363 -3.0224 6.7507935 -6.7507935 6.7507935l-83.38025 0c-3.7283936 0 -6.7507935 -3.0224304 -6.7507935 -6.7507935z" fill-rule="nonzero"></path><path stroke="#000000" stroke-width="1.0" stroke-linejoin="round" stroke-linecap="butt" d="m632.3486 113.6306l0 0c0 -3.728363 3.0224 -6.7507935 6.7507935 -6.7507935l83.38025 0c1.7904663 0 3.5075684 0.7112427 4.7735596 1.9772644c1.2659912 1.2660141 1.9772339 2.9831085 1.9772339 4.773529l0 27.00235c0 3.728363 -3.0224 6.7507935 -6.7507935 6.7507935l-83.38025 0c-3.7283936 0 -6.7507935 -3.0224304 -6.7507935 -6.7507935z" fill-rule="nonzero"></path><path fill="#000000" d="m651.8064 131.93178l0 -9.3125l6.71875 0l0 1.109375l-5.484375 0l0 2.84375l5.140625 0l0 1.09375l-5.140625 0l0 3.171875l5.703125 0l0 1.09375l-6.9375 0zm8.7178955 0l0 -6.734375l1.03125 0l0 0.953125q0.734375 -1.109375 2.140625 -1.109375q0.609375 0 1.109375 0.21875q0.515625 0.21875 0.765625 0.578125q0.265625 0.34375 0.359375 0.84375q0.0625 0.3125 0.0625 1.109375l0 4.140625l-1.140625 0l0 -4.09375q0 -0.703125 -0.140625 -1.046875q-0.125 -0.34375 -0.46875 -0.546875q-0.328125 -0.21875 -0.78125 -0.21875q-0.734375 0 -1.265625 0.46875q-0.53125 0.453125 -0.53125 1.75l0 3.6875l-1.140625 0zm11.787476 0l0 -0.84375q-0.640625 1.0 -1.890625 1.0q-0.796875 0 -1.484375 -0.4375q-0.671875 -0.453125 -1.046875 -1.25q-0.375 -0.796875 -0.375 -1.828125q0 -1.015625 0.34375 -1.828125q0.34375 -0.828125 1.015625 -1.265625q0.671875 -0.4375 1.5 -0.4375q0.609375 0 1.078125 0.265625q0.484375 0.25 0.78125 0.65625l0 -3.34375l1.140625 0l0 9.3125l-1.0625 0zm-3.609375 -3.359375q0 1.296875 0.53125 1.9375q0.546875 0.640625 1.296875 0.640625q0.75 0 1.265625 -0.609375q0.53125 -0.625 0.53125 -1.875q0 -1.390625 -0.53125 -2.03125q-0.53125 -0.65625 -1.3125 -0.65625q-0.765625 0 -1.28125 0.625q-0.5 0.625 -0.5 1.96875zm6.6468506 5.9375l0 -9.3125l1.03125 0l0 0.875q0.375 -0.515625 0.828125 -0.765625q0.46875 -0.265625 1.140625 -0.265625q0.859375 0 1.515625 0.453125q0.65625 0.4375 0.984375 1.25q0.34375 0.796875 0.34375 1.765625q0 1.03125 -0.375 1.859375q-0.359375 0.828125 -1.078125 1.28125q-0.703125 0.4375 -1.484375 0.4375q-0.5625 0 -1.015625 -0.234375q-0.453125 -0.25 -0.75 -0.625l0 3.28125l-1.140625 0zm1.03125 -5.90625q0 1.296875 0.53125 1.921875q0.53125 0.625 1.265625 0.625q0.765625 0 1.3125 -0.640625q0.546875 -0.65625 0.546875 -2.0q0 -1.296875 -0.53125 -1.9375q-0.53125 -0.640625 -1.265625 -0.640625q-0.734375 0 -1.296875 0.6875q-0.5625 0.671875 -0.5625 1.984375zm5.9593506 -0.046875q0 -1.875 1.03125 -2.765625q0.875 -0.75 2.125 -0.75q1.390625 0 2.265625 0.90625q0.890625 0.90625 0.890625 2.515625q0 1.296875 -0.390625 2.046875q-0.390625 0.75 -1.140625 1.171875q-0.75 0.40625 -1.625 0.40625q-1.421875 0 -2.296875 -0.90625q-0.859375 -0.90625 -0.859375 -2.625zm1.171875 0q0 1.296875 0.5625 1.953125q0.5625 0.640625 1.421875 0.640625q0.84375 0 1.40625 -0.640625q0.578125 -0.65625 0.578125 -1.984375q0 -1.25 -0.578125 -1.890625q-0.5625 -0.65625 -1.40625 -0.65625q-0.859375 0 -1.421875 0.640625q-0.5625 0.640625 -0.5625 1.9375zm6.6624756 -4.609375l0 -1.328125l1.140625 0l0 1.328125l-1.140625 0zm0 7.984375l0 -6.734375l1.140625 0l0 6.734375l-1.140625 0zm2.9610596 0l0 -6.734375l1.03125 0l0 0.953125q0.734375 -1.109375 2.140625 -1.109375q0.609375 0 1.109375 0.21875q0.515625 0.21875 0.765625 0.578125q0.265625 0.34375 0.359375 0.84375q0.0625 0.3125 0.0625 1.109375l0 4.140625l-1.140625 0l0 -4.09375q0 -0.703125 -0.140625 -1.046875q-0.125 -0.34375 -0.46875 -0.546875q-0.328125 -0.21875 -0.78125 -0.21875q-0.734375 0 -1.265625 0.46875q-0.53125 0.453125 -0.53125 1.75l0 3.6875l-1.140625 0zm9.912476 -1.015625l0.15625 1.0q-0.484375 0.109375 -0.859375 0.109375q-0.625 0 -0.96875 -0.203125q-0.34375 -0.203125 -0.484375 -0.515625q-0.140625 -0.328125 -0.140625 -1.34375l0 -3.890625l-0.828125 0l0 -0.875l0.828125 0l0 -1.671875l1.140625 -0.6875l0 2.359375l1.15625 0l0 0.875l-1.15625 0l0 3.953125q0 0.484375 0.0625 0.625q0.0625 0.140625 0.1875 0.21875q0.140625 0.078125 0.390625 0.078125q0.203125 0 0.515625 -0.03125zm0.8905029 -1.4375l1.140625 -0.15625q0.203125 0.96875 0.671875 1.40625q0.46875 0.421875 1.15625 0.421875q0.796875 0 1.34375 -0.546875q0.5625 -0.5625 0.5625 -1.390625q0 -0.796875 -0.515625 -1.296875q-0.5 -0.515625 -1.296875 -0.515625q-0.328125 0 -0.8125 0.125l0.125 -1.0q0.125 0.015625 0.1875 0.015625q0.734375 0 1.3125 -0.375q0.59375 -0.390625 0.59375 -1.1875q0 -0.625 -0.4375 -1.03125q-0.421875 -0.421875 -1.09375 -0.421875q-0.671875 0 -1.109375 0.421875q-0.4375 0.421875 -0.578125 1.25l-1.140625 -0.203125q0.21875 -1.140625 0.953125 -1.765625q0.75 -0.640625 1.84375 -0.640625q0.765625 0 1.40625 0.328125q0.640625 0.328125 0.984375 0.890625q0.34375 0.5625 0.34375 1.203125q0 0.59375 -0.328125 1.09375q-0.328125 0.5 -0.953125 0.78125q0.8125 0.203125 1.265625 0.796875q0.46875 0.59375 0.46875 1.5q0 1.21875 -0.890625 2.078125q-0.890625 0.84375 -2.25 0.84375q-1.21875 0 -2.03125 -0.734375q-0.8125 -0.734375 -0.921875 -1.890625z" fill-rule="nonzero"></path><path fill="#000000" fill-opacity="0.0" d="m559.3058 70.36483c0 9.128723 -30.370056 13.69445 -60.740143 18.257446c-30.370056 4.5629883 -60.740143 9.123245 -60.740143 18.24649" fill-rule="nonzero"></path><path stroke="#000000" stroke-width="1.0" stroke-linejoin="round" stroke-linecap="butt" d="m559.3058 70.36483c0 9.128723 -30.370056 13.69445 -60.740143 18.257446c-30.370056 4.5629883 -60.740143 9.123245 -60.740143 18.24649" fill-rule="nonzero"></path><path fill="#000000" fill-opacity="0.0" d="m559.3058 70.36483c0 9.128723 30.370117 13.69445 60.740173 18.257446c30.370117 4.5629883 60.740173 9.123245 60.740173 18.24649" fill-rule="nonzero"></path><path stroke="#000000" stroke-width="1.0" stroke-linejoin="round" stroke-linecap="butt" d="m559.3058 70.36483c0 9.128723 30.370117 13.69445 60.740173 18.257446c30.370117 4.5629883 60.740173 9.123245 60.740173 18.24649" fill-rule="nonzero"></path><path fill="#000000" fill-opacity="0.0" d="m559.3058 70.36483c0 9.128723 0.01574707 13.69445 0.03149414 18.257446c0.015808105 4.5629883 0.031555176 9.123245 0.031555176 18.24649" fill-rule="nonzero"></path><path stroke="#000000" stroke-width="1.0" stroke-linejoin="round" stroke-linecap="butt" d="m559.3058 70.36483c0 9.128723 0.01574707 13.69445 0.03149414 18.257446c0.015808105 4.5629883 0.031555176 9.123245 0.031555176 18.24649" fill-rule="nonzero"></path><path fill="#cfe2f3" d="m250.04158 187.99368l0 0c0 -3.3630676 2.726303 -6.0893555 6.0893707 -6.0893555l148.98663 0c1.6149902 0 3.1638489 0.6415558 4.3058167 1.7835236c1.1419678 1.141983 1.7835388 2.6908264 1.7835388 4.305832l0 24.356705c0 3.3630676 -2.7263184 6.0893707 -6.0893555 6.0893707l-148.98663 0c-3.3630676 0 -6.0893707 -2.726303 -6.0893707 -6.0893707z" fill-rule="nonzero"></path><path stroke="#000000" stroke-width="1.0" stroke-linejoin="round" stroke-linecap="butt" d="m250.04158 187.99368l0 0c0 -3.3630676 2.726303 -6.0893555 6.0893707 -6.0893555l148.98663 0c1.6149902 0 3.1638489 0.6415558 4.3058167 1.7835236c1.1419678 1.141983 1.7835388 2.6908264 1.7835388 4.305832l0 24.356705c0 3.3630676 -2.7263184 6.0893707 -6.0893555 6.0893707l-148.98663 0c-3.3630676 0 -6.0893707 -2.726303 -6.0893707 -6.0893707z" fill-rule="nonzero"></path><path fill="#000000" d="m274.73526 204.97203l0 -8.203125l-3.0625 0l0 -1.109375l7.375 0l0 1.109375l-3.078125 0l0 8.203125l-1.234375 0zm10.235107 -2.171875l1.1875 0.140625q-0.28125 1.046875 -1.046875 1.625q-0.75 0.5625 -1.921875 0.5625q-1.484375 0 -2.359375 -0.90625q-0.859375 -0.921875 -0.859375 -2.5625q0 -1.703125 0.875 -2.640625q0.890625 -0.9375 2.28125 -0.9375q1.359375 0 2.203125 0.921875q0.859375 0.921875 0.859375 2.578125q0 0.109375 0 0.3125l-5.03125 0q0.0625 1.109375 0.625 1.703125q0.5625 0.59375 1.40625 0.59375q0.640625 0 1.078125 -0.328125q0.453125 -0.34375 0.703125 -1.0625zm-3.75 -1.84375l3.765625 0q-0.078125 -0.859375 -0.4375 -1.28125q-0.546875 -0.65625 -1.40625 -0.65625q-0.796875 0 -1.328125 0.53125q-0.53125 0.515625 -0.59375 1.40625zm6.5531006 4.015625l0 -6.734375l1.015625 0l0 0.9375q0.328125 -0.5 0.84375 -0.796875q0.53125 -0.296875 1.203125 -0.296875q0.75 0 1.21875 0.3125q0.484375 0.3125 0.6875 0.859375q0.796875 -1.171875 2.078125 -1.171875q1.0 0 1.53125 0.5625q0.546875 0.546875 0.546875 1.703125l0 4.625l-1.125 0l0 -4.25q0 -0.6875 -0.109375 -0.984375q-0.109375 -0.296875 -0.40625 -0.484375q-0.296875 -0.1875 -0.6875 -0.1875q-0.71875 0 -1.1875 0.484375q-0.46875 0.46875 -0.46875 1.5l0 3.921875l-1.140625 0l0 -4.375q0 -0.765625 -0.28125 -1.140625q-0.28125 -0.390625 -0.90625 -0.390625q-0.484375 0 -0.890625 0.265625q-0.40625 0.25 -0.59375 0.734375q-0.1875 0.484375 -0.1875 1.40625l0 3.5l-1.140625 0zm11.1024475 2.578125l0 -9.3125l1.03125 0l0 0.875q0.375 -0.515625 0.828125 -0.765625q0.46875 -0.265625 1.140625 -0.265625q0.859375 0 1.515625 0.453125q0.65625 0.4375 0.984375 1.25q0.34375 0.796875 0.34375 1.765625q0 1.03125 -0.375 1.859375q-0.359375 0.828125 -1.078125 1.28125q-0.703125 0.4375 -1.484375 0.4375q-0.5625 0 -1.015625 -0.234375q-0.453125 -0.25 -0.75 -0.625l0 3.28125l-1.140625 0zm1.03125 -5.90625q0 1.296875 0.53125 1.921875q0.53125 0.625 1.265625 0.625q0.765625 0 1.3125 -0.640625q0.546875 -0.65625 0.546875 -2.0q0 -1.296875 -0.53125 -1.9375q-0.53125 -0.640625 -1.265625 -0.640625q-0.734375 0 -1.296875 0.6875q-0.5625 0.671875 -0.5625 1.984375zm10.990601 1.15625l1.1875 0.140625q-0.28125 1.046875 -1.046875 1.625q-0.75 0.5625 -1.921875 0.5625q-1.484375 0 -2.359375 -0.90625q-0.859375 -0.921875 -0.859375 -2.5625q0 -1.703125 0.875 -2.640625q0.890625 -0.9375 2.28125 -0.9375q1.359375 0 2.203125 0.921875q0.859375 0.921875 0.859375 2.578125q0 0.109375 0 0.3125l-5.03125 0q0.0625 1.109375 0.625 1.703125q0.5625 0.59375 1.40625 0.59375q0.640625 0 1.078125 -0.328125q0.453125 -0.34375 0.703125 -1.0625zm-3.75 -1.84375l3.765625 0q-0.078125 -0.859375 -0.4375 -1.28125q-0.546875 -0.65625 -1.40625 -0.65625q-0.796875 0 -1.328125 0.53125q-0.53125 0.515625 -0.59375 1.40625zm6.5374756 4.015625l0 -6.734375l1.03125 0l0 1.015625q0.390625 -0.71875 0.71875 -0.9375q0.34375 -0.234375 0.734375 -0.234375q0.578125 0 1.171875 0.359375l-0.390625 1.0625q-0.421875 -0.25 -0.828125 -0.25q-0.375 0 -0.6875 0.234375q-0.296875 0.21875 -0.421875 0.625q-0.1875 0.609375 -0.1875 1.328125l0 3.53125l-1.140625 0zm8.8446045 -0.828125q-0.625 0.53125 -1.21875 0.765625q-0.578125 0.21875 -1.25 0.21875q-1.125 0 -1.71875 -0.546875q-0.59375 -0.546875 -0.59375 -1.390625q0 -0.484375 0.21875 -0.890625q0.234375 -0.421875 0.59375 -0.671875q0.375 -0.25 0.828125 -0.375q0.328125 -0.078125 1.015625 -0.171875q1.375 -0.15625 2.03125 -0.390625q0.015625 -0.234375 0.015625 -0.296875q0 -0.703125 -0.328125 -0.984375q-0.4375 -0.390625 -1.296875 -0.390625q-0.8125 0 -1.203125 0.28125q-0.375 0.28125 -0.5625 1.0l-1.109375 -0.140625q0.140625 -0.71875 0.484375 -1.15625q0.359375 -0.453125 1.015625 -0.6875q0.671875 -0.234375 1.53125 -0.234375q0.875 0 1.40625 0.203125q0.546875 0.203125 0.796875 0.515625q0.25 0.296875 0.359375 0.765625q0.046875 0.296875 0.046875 1.0625l0 1.515625q0 1.59375 0.078125 2.015625q0.078125 0.421875 0.28125 0.8125l-1.1875 0q-0.171875 -0.359375 -0.234375 -0.828125zm-0.09375 -2.5625q-0.625 0.265625 -1.859375 0.4375q-0.703125 0.109375 -1.0 0.234375q-0.296875 0.125 -0.453125 0.375q-0.15625 0.234375 -0.15625 0.53125q0 0.453125 0.34375 0.765625q0.34375 0.296875 1.015625 0.296875q0.65625 0 1.171875 -0.28125q0.515625 -0.296875 0.765625 -0.796875q0.171875 -0.375 0.171875 -1.140625l0 -0.421875zm5.6156006 2.375l0.15625 1.0q-0.484375 0.109375 -0.859375 0.109375q-0.625 0 -0.96875 -0.203125q-0.34375 -0.203125 -0.484375 -0.515625q-0.140625 -0.328125 -0.140625 -1.34375l0 -3.890625l-0.828125 0l0 -0.875l0.828125 0l0 -1.671875l1.140625 -0.6875l0 2.359375l1.15625 0l0 0.875l-1.15625 0l0 3.953125q0 0.484375 0.0625 0.625q0.0625 0.140625 0.1875 0.21875q0.140625 0.078125 0.390625 0.078125q0.203125 0 0.515625 -0.03125zm5.624878 1.015625l0 -0.984375q-0.796875 1.140625 -2.140625 1.140625q-0.59375 0 -1.125 -0.234375q-0.515625 -0.234375 -0.765625 -0.578125q-0.25 -0.34375 -0.34375 -0.84375q-0.078125 -0.328125 -0.078125 -1.0625l0 -4.171875l1.140625 0l0 3.734375q0 0.890625 0.078125 1.203125q0.109375 0.453125 0.453125 0.71875q0.34375 0.25 0.859375 0.25q0.515625 0 0.96875 -0.265625q0.453125 -0.265625 0.640625 -0.71875q0.1875 -0.453125 0.1875 -1.3125l0 -3.609375l1.140625 0l0 6.734375l-1.015625 0zm2.9749756 0l0 -6.734375l1.03125 0l0 1.015625q0.390625 -0.71875 0.71875 -0.9375q0.34375 -0.234375 0.734375 -0.234375q0.578125 0 1.171875 0.359375l-0.390625 1.0625q-0.421875 -0.25 -0.828125 -0.25q-0.375 0 -0.6875 0.234375q-0.296875 0.21875 -0.421875 0.625q-0.1875 0.609375 -0.1875 1.328125l0 3.53125l-1.140625 0zm9.0633545 -2.171875l1.1875 0.140625q-0.28125 1.046875 -1.046875 1.625q-0.75 0.5625 -1.921875 0.5625q-1.484375 0 -2.359375 -0.90625q-0.859375 -0.921875 -0.859375 -2.5625q0 -1.703125 0.875 -2.640625q0.890625 -0.9375 2.28125 -0.9375q1.359375 0 2.203125 0.921875q0.859375 0.921875 0.859375 2.578125q0 0.109375 0 0.3125l-5.03125 0q0.0625 1.109375 0.625 1.703125q0.5625 0.59375 1.40625 0.59375q0.640625 0 1.078125 -0.328125q0.453125 -0.34375 0.703125 -1.0625zm-3.75 -1.84375l3.765625 0q-0.078125 -0.859375 -0.4375 -1.28125q-0.546875 -0.65625 -1.40625 -0.65625q-0.796875 0 -1.328125 0.53125q-0.53125 0.515625 -0.59375 1.40625zm12.4436035 6.75q-0.953125 -1.1875 -1.609375 -2.78125q-0.65625 -1.609375 -0.65625 -3.328125q0 -1.5 0.5 -2.890625q0.5625 -1.609375 1.765625 -3.203125l0.8125 0q-0.765625 1.328125 -1.015625 1.890625q-0.390625 0.875 -0.609375 1.828125q-0.265625 1.1875 -0.265625 2.390625q0 3.046875 1.890625 6.09375l-0.8125 0zm1.9383545 -5.1875l1.140625 -0.15625q0.203125 0.96875 0.671875 1.40625q0.46875 0.421875 1.15625 0.421875q0.796875 0 1.34375 -0.546875q0.5625 -0.5625 0.5625 -1.390625q0 -0.796875 -0.515625 -1.296875q-0.5 -0.515625 -1.296875 -0.515625q-0.328125 0 -0.8125 0.125l0.125 -1.0q0.125 0.015625 0.1875 0.015625q0.734375 0 1.3125 -0.375q0.59375 -0.390625 0.59375 -1.1875q0 -0.625 -0.4375 -1.03125q-0.421875 -0.421875 -1.09375 -0.421875q-0.671875 0 -1.109375 0.421875q-0.4375 0.421875 -0.578125 1.25l-1.140625 -0.203125q0.21875 -1.140625 0.953125 -1.765625q0.75 -0.640625 1.84375 -0.640625q0.765625 0 1.40625 0.328125q0.640625 0.328125 0.984375 0.890625q0.34375 0.5625 0.34375 1.203125q0 0.59375 -0.328125 1.09375q-0.328125 0.5 -0.953125 0.78125q0.8125 0.203125 1.265625 0.796875q0.46875 0.59375 0.46875 1.5q0 1.21875 -0.890625 2.078125q-0.890625 0.84375 -2.25 0.84375q-1.21875 0 -2.03125 -0.734375q-0.8125 -0.734375 -0.921875 -1.890625zm7.4124756 0l1.140625 -0.15625q0.203125 0.96875 0.671875 1.40625q0.46875 0.421875 1.15625 0.421875q0.796875 0 1.34375 -0.546875q0.5625 -0.5625 0.5625 -1.390625q0 -0.796875 -0.515625 -1.296875q-0.5 -0.515625 -1.296875 -0.515625q-0.328125 0 -0.8125 0.125l0.125 -1.0q0.125 0.015625 0.1875 0.015625q0.734375 0 1.3125 -0.375q0.59375 -0.390625 0.59375 -1.1875q0 -0.625 -0.4375 -1.03125q-0.421875 -0.421875 -1.09375 -0.421875q-0.671875 0 -1.109375 0.421875q-0.4375 0.421875 -0.578125 1.25l-1.140625 -0.203125q0.21875 -1.140625 0.953125 -1.765625q0.75 -0.640625 1.84375 -0.640625q0.765625 0 1.40625 0.328125q0.640625 0.328125 0.984375 0.890625q0.34375 0.5625 0.34375 1.203125q0 0.59375 -0.328125 1.09375q-0.328125 0.5 -0.953125 0.78125q0.8125 0.203125 1.265625 0.796875q0.46875 0.59375 0.46875 1.5q0 1.21875 -0.890625 2.078125q-0.890625 0.84375 -2.25 0.84375q-1.21875 0 -2.03125 -0.734375q-0.8125 -0.734375 -0.921875 -1.890625zm7.4124756 -2.140625q0 -1.640625 0.328125 -2.640625q0.34375 -1.015625 1.015625 -1.5625q0.671875 -0.546875 1.6875 -0.546875q0.75 0 1.3125 0.3125q0.5625 0.296875 0.921875 0.859375q0.375 0.5625 0.578125 1.390625q0.21875 0.8125 0.21875 2.1875q0 1.640625 -0.34375 2.65625q-0.328125 1.0 -1.0 1.546875q-0.671875 0.546875 -1.6875 0.546875q-1.34375 0 -2.125 -0.96875q-0.90625 -1.15625 -0.90625 -3.78125zm1.171875 0q0 2.296875 0.53125 3.0625q0.53125 0.75 1.328125 0.75q0.78125 0 1.3125 -0.75q0.546875 -0.765625 0.546875 -3.0625q0 -2.296875 -0.546875 -3.046875q-0.53125 -0.75 -1.328125 -0.75q-0.78125 0 -1.265625 0.65625q-0.578125 0.859375 -0.578125 3.140625zm6.2406006 2.140625l1.140625 -0.15625q0.203125 0.96875 0.671875 1.40625q0.46875 0.421875 1.15625 0.421875q0.796875 0 1.34375 -0.546875q0.5625 -0.5625 0.5625 -1.390625q0 -0.796875 -0.515625 -1.296875q-0.5 -0.515625 -1.296875 -0.515625q-0.328125 0 -0.8125 0.125l0.125 -1.0q0.125 0.015625 0.1875 0.015625q0.734375 0 1.3125 -0.375q0.59375 -0.390625 0.59375 -1.1875q0 -0.625 -0.4375 -1.03125q-0.421875 -0.421875 -1.09375 -0.421875q-0.671875 0 -1.109375 0.421875q-0.4375 0.421875 -0.578125 1.25l-1.140625 -0.203125q0.21875 -1.140625 0.953125 -1.765625q0.75 -0.640625 1.84375 -0.640625q0.765625 0 1.40625 0.328125q0.640625 0.328125 0.984375 0.890625q0.34375 0.5625 0.34375 1.203125q0 0.59375 -0.328125 1.09375q-0.328125 0.5 -0.953125 0.78125q0.8125 0.203125 1.265625 0.796875q0.46875 0.59375 0.46875 1.5q0 1.21875 -0.890625 2.078125q-0.890625 0.84375 -2.25 0.84375q-1.21875 0 -2.03125 -0.734375q-0.8125 -0.734375 -0.921875 -1.890625zm8.474976 5.1875l-0.828125 0q1.90625 -3.046875 1.90625 -6.09375q0 -1.203125 -0.28125 -2.375q-0.203125 -0.953125 -0.59375 -1.828125q-0.25 -0.5625 -1.03125 -1.90625l0.828125 0q1.1875 1.59375 1.765625 3.203125q0.484375 1.390625 0.484375 2.890625q0 1.71875 -0.65625 3.328125q-0.65625 1.59375 -1.59375 2.78125z" fill-rule="nonzero"></path><path fill="#cfe2f3" d="m278.22794 249.53256l0 0c0 -3.3630676 2.7262878 -6.0893555 6.0893555 -6.0893555l27.537811 0c1.6150208 0 3.1638489 0.6415558 4.305847 1.7835236c1.1419678 1.141983 1.7835083 2.6908264 1.7835083 4.305832l0 24.35672c0 3.363037 -2.7262878 6.0893555 -6.0893555 6.0893555l-27.537811 0c-3.3630676 0 -6.0893555 -2.7263184 -6.0893555 -6.0893555z" fill-rule="nonzero"></path><path stroke="#000000" stroke-width="1.0" stroke-linejoin="round" stroke-linecap="butt" d="m278.22794 249.53256l0 0c0 -3.3630676 2.7262878 -6.0893555 6.0893555 -6.0893555l27.537811 0c1.6150208 0 3.1638489 0.6415558 4.305847 1.7835236c1.1419678 1.141983 1.7835083 2.6908264 1.7835083 4.305832l0 24.35672c0 3.363037 -2.7262878 6.0893555 -6.0893555 6.0893555l-27.537811 0c-3.3630676 0 -6.0893555 -2.7263184 -6.0893555 -6.0893555z" fill-rule="nonzero"></path><path fill="#000000" d="m294.92685 261.91718q0 -1.640625 0.328125 -2.640625q0.34375 -1.015625 1.015625 -1.5625q0.671875 -0.546875 1.6875 -0.546875q0.75 0 1.3125 0.3125q0.5625 0.296875 0.921875 0.859375q0.375 0.5625 0.578125 1.390625q0.21875 0.8125 0.21875 2.1875q0 1.640625 -0.34375 2.65625q-0.328125 1.0 -1.0 1.546875q-0.671875 0.546875 -1.6875 0.546875q-1.34375 0 -2.125 -0.96875q-0.90625 -1.15625 -0.90625 -3.78125zm1.171875 0q0 2.296875 0.53125 3.0625q0.53125 0.75 1.328125 0.75q0.78125 0 1.3125 -0.75q0.546875 -0.765625 0.546875 -3.0625q0 -2.296875 -0.546875 -3.046875q-0.53125 -0.75 -1.328125 -0.75q-0.78125 0 -1.265625 0.65625q-0.578125 0.859375 -0.578125 3.140625z" fill-rule="nonzero"></path><path fill="#cfe2f3" d="m343.31808 249.53256l0 0c0 -3.3630676 2.7263184 -6.0893555 6.089386 -6.0893555l27.537811 0c1.6149902 0 3.1638489 0.6415558 4.3058167 1.7835236c1.1419678 1.141983 1.7835388 2.6908264 1.7835388 4.305832l0 24.35672c0 3.363037 -2.7262878 6.0893555 -6.0893555 6.0893555l-27.537811 0c-3.3630676 0 -6.089386 -2.7263184 -6.089386 -6.0893555z" fill-rule="nonzero"></path><path stroke="#000000" stroke-width="1.0" stroke-linejoin="round" stroke-linecap="butt" d="m343.31808 249.53256l0 0c0 -3.3630676 2.7263184 -6.0893555 6.089386 -6.0893555l27.537811 0c1.6149902 0 3.1638489 0.6415558 4.3058167 1.7835236c1.1419678 1.141983 1.7835388 2.6908264 1.7835388 4.305832l0 24.35672c0 3.363037 -2.7262878 6.0893555 -6.0893555 6.0893555l-27.537811 0c-3.3630676 0 -6.089386 -2.7263184 -6.089386 -6.0893555z" fill-rule="nonzero"></path><path fill="#000000" d="m364.31387 266.51093l-1.140625 0l0 -7.28125q-0.421875 0.390625 -1.09375 0.796875q-0.65625 0.390625 -1.1875 0.578125l0 -1.109375q0.953125 -0.4375 1.671875 -1.078125q0.71875 -0.640625 1.015625 -1.25l0.734375 0l0 9.34375z" fill-rule="nonzero"></path><path fill="#000000" fill-opacity="0.0" d="m437.82208 147.38374c0 8.630096 -26.803131 12.945236 -53.606293 17.260193c-26.803131 4.3149567 -53.606293 8.6297455 -53.606293 17.259491" fill-rule="nonzero"></path><path stroke="#000000" stroke-width="1.0" stroke-linejoin="round" stroke-linecap="butt" d="m437.82208 147.38374c0 8.630096 -26.803131 12.945236 -53.606293 17.260193c-26.803131 4.3149567 -53.606293 8.6297455 -53.606293 17.259491" fill-rule="nonzero"></path><path fill="#000000" fill-opacity="0.0" d="m330.62427 218.43976c0 6.250839 -8.133881 9.375702 -16.26773 12.501678c-8.13385 3.1259918 -16.2677 6.2530975 -16.2677 12.506195" fill-rule="nonzero"></path><path stroke="#000000" stroke-width="1.0" stroke-linejoin="round" stroke-linecap="butt" d="m330.62427 218.43976c0 6.250839 -8.133881 9.375702 -16.26773 12.501678c-8.13385 3.1259918 -16.2677 6.2530975 -16.2677 12.506195" fill-rule="nonzero"></path><path fill="#cfe2f3" d="m194.46915 318.205l0 0c0 -3.3630676 2.7262878 -6.0893555 6.0893555 -6.0893555l148.98663 0c1.6149902 0 3.1638489 0.6415405 4.3058167 1.7835388c1.1419678 1.1419678 1.7835388 2.6908264 1.7835388 4.3058167l0 24.35672c0 3.3630676 -2.7263184 6.0893555 -6.0893555 6.0893555l-148.98663 0c-3.3630676 0 -6.0893555 -2.7262878 -6.0893555 -6.0893555z" fill-rule="nonzero"></path><path stroke="#000000" stroke-width="1.0" stroke-linejoin="round" stroke-linecap="butt" d="m194.46915 318.205l0 0c0 -3.3630676 2.7262878 -6.0893555 6.0893555 -6.0893555l148.98663 0c1.6149902 0 3.1638489 0.6415405 4.3058167 1.7835388c1.1419678 1.1419678 1.7835388 2.6908264 1.7835388 4.3058167l0 24.35672c0 3.3630676 -2.7263184 6.0893555 -6.0893555 6.0893555l-148.98663 0c-3.3630676 0 -6.0893555 -2.7262878 -6.0893555 -6.0893555z" fill-rule="nonzero"></path><path fill="#000000" d="m223.42064 335.18335l0 -9.3125l1.84375 0l2.203125 6.59375q0.3125 0.921875 0.453125 1.375q0.15625 -0.5 0.484375 -1.484375l2.234375 -6.484375l1.65625 0l0 9.3125l-1.1875 0l0 -7.78125l-2.703125 7.78125l-1.109375 0l-2.6875 -7.921875l0 7.921875l-1.1875 0zm15.383682 -0.828125q-0.625 0.53125 -1.21875 0.765625q-0.578125 0.21875 -1.25 0.21875q-1.125 0 -1.71875 -0.546875q-0.59375 -0.546875 -0.59375 -1.390625q0 -0.484375 0.21875 -0.890625q0.234375 -0.421875 0.59375 -0.671875q0.375 -0.25 0.828125 -0.375q0.328125 -0.078125 1.015625 -0.171875q1.375 -0.15625 2.03125 -0.390625q0.015625 -0.234375 0.015625 -0.296875q0 -0.703125 -0.328125 -0.984375q-0.4375 -0.390625 -1.296875 -0.390625q-0.8125 0 -1.203125 0.28125q-0.375 0.28125 -0.5625 1.0l-1.109375 -0.140625q0.140625 -0.71875 0.484375 -1.15625q0.359375 -0.453125 1.015625 -0.6875q0.671875 -0.234375 1.53125 -0.234375q0.875 0 1.40625 0.203125q0.546875 0.203125 0.796875 0.515625q0.25 0.296875 0.359375 0.765625q0.046875 0.296875 0.046875 1.0625l0 1.515625q0 1.59375 0.078125 2.015625q0.078125 0.421875 0.28125 0.8125l-1.1875 0q-0.171875 -0.359375 -0.234375 -0.828125zm-0.09375 -2.5625q-0.625 0.265625 -1.859375 0.4375q-0.703125 0.109375 -1.0 0.234375q-0.296875 0.125 -0.453125 0.375q-0.15625 0.234375 -0.15625 0.53125q0 0.453125 0.34375 0.765625q0.34375 0.296875 1.015625 0.296875q0.65625 0 1.171875 -0.28125q0.515625 -0.296875 0.765625 -0.796875q0.171875 -0.375 0.171875 -1.140625l0 -0.421875zm2.3499756 3.390625l2.46875 -3.5l-2.28125 -3.234375l1.421875 0l1.046875 1.578125q0.28125 0.453125 0.46875 0.75q0.265625 -0.421875 0.5 -0.734375l1.140625 -1.59375l1.375 0l-2.34375 3.171875l2.515625 3.5625l-1.40625 0l-1.375 -2.09375l-0.375 -0.5625l-1.765625 2.65625l-1.390625 0zm13.92955 0l-3.59375 -9.3125l1.328125 0l2.421875 6.765625q0.28125 0.8125 0.484375 1.53125q0.21875 -0.765625 0.49998474 -1.53125l2.515625 -6.765625l1.25 0l-3.640625 9.3125l-1.2656097 0zm10.483505 -0.828125q-0.625 0.53125 -1.21875 0.765625q-0.578125 0.21875 -1.25 0.21875q-1.125 0 -1.71875 -0.546875q-0.59375 -0.546875 -0.59375 -1.390625q0 -0.484375 0.21875 -0.890625q0.234375 -0.421875 0.59375 -0.671875q0.375 -0.25 0.828125 -0.375q0.328125 -0.078125 1.015625 -0.171875q1.375 -0.15625 2.03125 -0.390625q0.015625 -0.234375 0.015625 -0.296875q0 -0.703125 -0.328125 -0.984375q-0.4375 -0.390625 -1.296875 -0.390625q-0.8125 0 -1.203125 0.28125q-0.375 0.28125 -0.5625 1.0l-1.109375 -0.140625q0.140625 -0.71875 0.484375 -1.15625q0.359375 -0.453125 1.015625 -0.6875q0.671875 -0.234375 1.53125 -0.234375q0.875 0 1.40625 0.203125q0.546875 0.203125 0.796875 0.515625q0.25 0.296875 0.359375 0.765625q0.046875 0.296875 0.046875 1.0625l0 1.515625q0 1.59375 0.078125 2.015625q0.078125 0.421875 0.28125 0.8125l-1.1875 0q-0.171875 -0.359375 -0.234375 -0.828125zm-0.09375 -2.5625q-0.625 0.265625 -1.859375 0.4375q-0.703125 0.109375 -1.0 0.234375q-0.296875 0.125 -0.453125 0.375q-0.15625 0.234375 -0.15625 0.53125q0 0.453125 0.34375 0.765625q0.34375 0.296875 1.015625 0.296875q0.65625 0 1.171875 -0.28125q0.515625 -0.296875 0.765625 -0.796875q0.171875 -0.375 0.171875 -1.140625l0 -0.421875zm3.0843506 3.390625l0 -9.3125l1.140625 0l0 9.3125l-1.140625 0zm7.414215 0l0 -0.984375q-0.796875 1.140625 -2.140625 1.140625q-0.59375 0 -1.125 -0.234375q-0.515625 -0.234375 -0.765625 -0.578125q-0.25 -0.34375 -0.34375 -0.84375q-0.078125 -0.328125 -0.078125 -1.0625l0 -4.171875l1.140625 0l0 3.734375q0 0.890625 0.078125 1.203125q0.109375 0.453125 0.453125 0.71875q0.34375 0.25 0.859375 0.25q0.515625 0 0.96875 -0.265625q0.453125 -0.265625 0.640625 -0.71875q0.1875 -0.453125 0.1875 -1.3125l0 -3.609375l1.140625 0l0 6.734375l-1.015625 0zm7.5999756 -2.171875l1.1875 0.140625q-0.28125 1.046875 -1.046875 1.625q-0.75 0.5625 -1.921875 0.5625q-1.484375 0 -2.359375 -0.90625q-0.859375 -0.921875 -0.859375 -2.5625q0 -1.703125 0.875 -2.640625q0.890625 -0.9375 2.28125 -0.9375q1.359375 0 2.203125 0.921875q0.859375 0.921875 0.859375 2.578125q0 0.109375 0 0.3125l-5.03125 0q0.0625 1.109375 0.625 1.703125q0.5625 0.59375 1.40625 0.59375q0.640625 0 1.078125 -0.328125q0.453125 -0.34375 0.703125 -1.0625zm-3.75 -1.84375l3.765625 0q-0.078125 -0.859375 -0.4375 -1.28125q-0.546875 -0.65625 -1.40625 -0.65625q-0.796875 0 -1.328125 0.53125q-0.53125 0.515625 -0.59375 1.40625zm12.443573 6.75q-0.953125 -1.1875 -1.609375 -2.78125q-0.65625 -1.609375 -0.65625 -3.328125q0 -1.5 0.5 -2.890625q0.5625 -1.609375 1.765625 -3.203125l0.8125 0q-0.765625 1.328125 -1.015625 1.890625q-0.390625 0.875 -0.609375 1.828125q-0.265625 1.1875 -0.265625 2.390625q0 3.046875 1.890625 6.09375l-0.8125 0zm1.938385 -5.171875l1.1875 -0.109375q0.140625 0.890625 0.625 1.328125q0.484375 0.4375 1.171875 0.4375q0.828125 0 1.390625 -0.625q0.578125 -0.625 0.578125 -1.640625q0 -0.984375 -0.546875 -1.546875q-0.546875 -0.5625 -1.4375 -0.5625q-0.5625 0 -1.015625 0.25q-0.4375 0.25 -0.6875 0.640625l-1.0625 -0.140625l0.890625 -4.765625l4.625 0l0 1.078125l-3.703125 0l-0.5 2.5q0.828125 -0.578125 1.75 -0.578125q1.21875 0 2.046875 0.84375q0.84375 0.84375 0.84375 2.171875q0 1.265625 -0.734375 2.1875q-0.890625 1.125 -2.4375 1.125q-1.265625 0 -2.078125 -0.703125q-0.796875 -0.71875 -0.90625 -1.890625zm13.334351 -4.59375l-1.140625 0.09375q-0.140625 -0.671875 -0.421875 -0.984375q-0.46875 -0.484375 -1.140625 -0.484375q-0.546875 0 -0.96875 0.3125q-0.53125 0.390625 -0.84375 1.140625q-0.3125 0.75 -0.328125 2.15625q0.40625 -0.625 1.0 -0.921875q0.609375 -0.3125 1.265625 -0.3125q1.140625 0 1.9375 0.84375q0.8125 0.828125 0.8125 2.171875q0 0.875 -0.390625 1.625q-0.375 0.75 -1.03125 1.15625q-0.65625 0.390625 -1.5 0.390625q-1.421875 0 -2.328125 -1.046875q-0.90625 -1.046875 -0.90625 -3.46875q0 -2.6875 1.0 -3.921875q0.875 -1.0625 2.34375 -1.0625q1.09375 0 1.796875 0.625q0.703125 0.609375 0.84375 1.6875zm-4.671875 4.015625q0 0.59375 0.25 1.140625q0.25 0.53125 0.703125 0.8125q0.453125 0.28125 0.953125 0.28125q0.71875 0 1.234375 -0.578125q0.53125 -0.59375 0.53125 -1.59375q0 -0.96875 -0.515625 -1.515625q-0.515625 -0.5625 -1.296875 -0.5625q-0.78125 0 -1.328125 0.5625q-0.53125 0.546875 -0.53125 1.453125zm6.1624756 -1.578125q0 -1.640625 0.328125 -2.640625q0.34375 -1.015625 1.015625 -1.5625q0.671875 -0.546875 1.6875 -0.546875q0.75 0 1.3125 0.3125q0.5625 0.296875 0.921875 0.859375q0.375 0.5625 0.578125 1.390625q0.21875 0.8125 0.21875 2.1875q0 1.640625 -0.34375 2.65625q-0.328125 1.0 -1.0 1.546875q-0.671875 0.546875 -1.6875 0.546875q-1.34375 0 -2.125 -0.96875q-0.90625 -1.15625 -0.90625 -3.78125zm1.171875 0q0 2.296875 0.53125 3.0625q0.53125 0.75 1.328125 0.75q0.78125 0 1.3125 -0.75q0.546875 -0.765625 0.546875 -3.0625q0 -2.296875 -0.546875 -3.046875q-0.53125 -0.75 -1.328125 -0.75q-0.78125 0 -1.265625 0.65625q-0.578125 0.859375 -0.578125 3.140625zm12.240601 3.5l0 1.09375l-6.15625 0q-0.015625 -0.40625 0.140625 -0.796875q0.234375 -0.625 0.75 -1.234375q0.515625 -0.609375 1.5 -1.40625q1.515625 -1.25 2.046875 -1.96875q0.53125 -0.734375 0.53125 -1.375q0 -0.6875 -0.484375 -1.140625q-0.484375 -0.46875 -1.265625 -0.46875q-0.828125 0 -1.328125 0.5q-0.484375 0.484375 -0.5 1.359375l-1.171875 -0.125q0.125 -1.3125 0.90625 -2.0q0.78125 -0.6875 2.109375 -0.6875q1.34375 0 2.125 0.75q0.78125 0.734375 0.78125 1.828125q0 0.5625 -0.234375 1.109375q-0.21875 0.53125 -0.75 1.140625q-0.53125 0.59375 -1.765625 1.625q-1.03125 0.859375 -1.328125 1.171875q-0.28125 0.3125 -0.46875 0.625l4.5625 0zm2.4749756 3.828125l-0.828125 0q1.90625 -3.046875 1.90625 -6.09375q0 -1.203125 -0.28125 -2.375q-0.203125 -0.953125 -0.59375 -1.828125q-0.25 -0.5625 -1.03125 -1.90625l0.828125 0q1.1875 1.59375 1.765625 3.203125q0.484375 1.390625 0.484375 2.890625q0 1.71875 -0.65625 3.328125q-0.65625 1.59375 -1.59375 2.78125z" fill-rule="nonzero"></path><path fill="#000000" fill-opacity="0.0" d="m330.62427 218.43976c0 6.250839 8.141724 9.375702 16.283447 12.501678c8.141754 3.1259918 16.283478 6.2530975 16.283478 12.506195" fill-rule="nonzero"></path><path stroke="#000000" stroke-width="1.0" stroke-linejoin="round" stroke-linecap="butt" d="m330.62427 218.43976c0 6.250839 8.141724 9.375702 16.283447 12.501678c8.141754 3.1259918 16.283478 6.2530975 16.283478 12.506195" fill-rule="nonzero"></path><path fill="#000000" fill-opacity="0.0" d="m298.0862 279.97864c0 8.03421 -5.7559204 12.052704 -11.51181 16.06845c-5.7559204 4.015747 -11.51181 8.028778 -11.51181 16.057526" fill-rule="nonzero"></path><path stroke="#000000" stroke-width="1.0" stroke-linejoin="round" stroke-linecap="butt" d="m298.0862 279.97864c0 8.03421 -5.7559204 12.052704 -11.51181 16.06845c-5.7559204 4.015747 -11.51181 8.028778 -11.51181 16.057526" fill-rule="nonzero"></path><path fill="#000000" fill-opacity="0.0" d="m363.17636 279.97864c0 6.4791565 10.968506 9.71814 21.937012 12.958282c10.968506 3.2401733 21.937012 6.481476 21.937012 12.962982" fill-rule="nonzero"></path><path stroke="#000000" stroke-width="1.0" stroke-linejoin="round" stroke-linecap="butt" d="m363.17636 279.97864c0 6.4791565 10.968506 9.71814 21.937012 12.958282c10.968506 3.2401733 21.937012 6.481476 21.937012 12.962982" fill-rule="nonzero"></path><path fill="#000000" fill-opacity="0.0" d="m265.91656 373.64218l96.8819 0l0 36.53543l-96.8819 0z" fill-rule="nonzero"></path><path fill="#000000" d="m286.85236 395.44217l0 -9.3125l4.125 0q1.25 0 1.890625 0.265625q0.65625 0.25 1.046875 0.890625q0.390625 0.625 0.390625 1.390625q0 0.984375 -0.65625 1.671875q-0.640625 0.671875 -1.96875 0.859375q0.484375 0.234375 0.734375 0.46875q0.546875 0.484375 1.03125 1.234375l1.609375 2.53125l-1.546875 0l-1.234375 -1.9375q-0.53125 -0.84375 -0.890625 -1.28125q-0.34375 -0.4375 -0.625 -0.609375q-0.265625 -0.1875 -0.546875 -0.265625q-0.21875 -0.03125 -0.6875 -0.03125l-1.4375 0l0 4.125l-1.234375 0zm1.234375 -5.203125l2.65625 0q0.84375 0 1.3125 -0.171875q0.484375 -0.171875 0.71875 -0.546875q0.25 -0.390625 0.25 -0.84375q0 -0.65625 -0.484375 -1.078125q-0.46875 -0.4375 -1.5 -0.4375l-2.953125 0l0 3.078125zm12.843903 3.03125l1.1875 0.140625q-0.28125 1.046875 -1.046875 1.625q-0.75 0.5625 -1.921875 0.5625q-1.484375 0 -2.359375 -0.90625q-0.859375 -0.921875 -0.859375 -2.5625q0 -1.703125 0.875 -2.640625q0.890625 -0.9375 2.28125 -0.9375q1.359375 0 2.203125 0.921875q0.859375 0.921875 0.859375 2.578125q0 0.109375 0 0.3125l-5.03125 0q0.0625 1.109375 0.625 1.703125q0.5625 0.59375 1.40625 0.59375q0.640625 0 1.078125 -0.328125q0.453125 -0.34375 0.703125 -1.0625zm-3.75 -1.84375l3.765625 0q-0.078125 -0.859375 -0.4375 -1.28125q-0.546875 -0.65625 -1.40625 -0.65625q-0.796875 0 -1.328125 0.53125q-0.53125 0.515625 -0.59375 1.40625zm6.0999756 2.0l1.125 -0.171875q0.09375 0.671875 0.53125 1.046875q0.4375 0.359375 1.21875 0.359375q0.78125 0 1.15625 -0.3125q0.390625 -0.328125 0.390625 -0.765625q0 -0.390625 -0.34375 -0.609375q-0.234375 -0.15625 -1.171875 -0.390625q-1.25 -0.3125 -1.734375 -0.546875q-0.484375 -0.234375 -0.734375 -0.640625q-0.25 -0.40625 -0.25 -0.90625q0 -0.453125 0.203125 -0.828125q0.203125 -0.390625 0.5625 -0.640625q0.265625 -0.203125 0.71875 -0.328125q0.46875 -0.140625 1.0 -0.140625q0.78125 0 1.375 0.234375q0.609375 0.21875 0.890625 0.609375q0.296875 0.390625 0.40625 1.046875l-1.125 0.15625q-0.078125 -0.53125 -0.4375 -0.8125q-0.359375 -0.296875 -1.03125 -0.296875q-0.78125 0 -1.125 0.265625q-0.34375 0.25 -0.34375 0.609375q0 0.21875 0.140625 0.390625q0.140625 0.1875 0.4375 0.3125q0.171875 0.0625 1.015625 0.28125q1.21875 0.328125 1.6875 0.53125q0.484375 0.203125 0.75 0.609375q0.28125 0.390625 0.28125 0.96875q0 0.578125 -0.34375 1.078125q-0.328125 0.5 -0.953125 0.78125q-0.625 0.28125 -1.421875 0.28125q-1.3125 0 -2.0 -0.546875q-0.6875 -0.546875 -0.875 -1.625zm6.6953125 -1.359375q0 -1.875 1.03125 -2.765625q0.875 -0.75 2.125 -0.75q1.390625 0 2.265625 0.90625q0.890625 0.90625 0.890625 2.515625q0 1.296875 -0.390625 2.046875q-0.390625 0.75 -1.140625 1.171875q-0.75 0.40625 -1.625 0.40625q-1.421875 0 -2.296875 -0.90625q-0.859375 -0.90625 -0.859375 -2.625zm1.171875 0q0 1.296875 0.5625 1.953125q0.5625 0.640625 1.421875 0.640625q0.84375 0 1.40625 -0.640625q0.578125 -0.65625 0.578125 -1.984375q0 -1.25 -0.578125 -1.890625q-0.5625 -0.65625 -1.40625 -0.65625q-0.859375 0 -1.421875 0.640625q-0.5625 0.640625 -0.5625 1.9375zm11.084351 3.375l0 -0.984375q-0.796875 1.140625 -2.140625 1.140625q-0.59375 0 -1.125 -0.234375q-0.515625 -0.234375 -0.765625 -0.578125q-0.25 -0.34375 -0.34375 -0.84375q-0.078125 -0.328125 -0.078125 -1.0625l0 -4.171875l1.140625 0l0 3.734375q0 0.890625 0.078125 1.203125q0.109375 0.453125 0.453125 0.71875q0.34375 0.25 0.859375 0.25q0.515625 0 0.96875 -0.265625q0.453125 -0.265625 0.640625 -0.71875q0.1875 -0.453125 0.1875 -1.3125l0 -3.609375l1.140625 0l0 6.734375l-1.015625 0zm2.9749756 0l0 -6.734375l1.03125 0l0 1.015625q0.390625 -0.71875 0.71875 -0.9375q0.34375 -0.234375 0.734375 -0.234375q0.578125 0 1.171875 0.359375l-0.390625 1.0625q-0.421875 -0.25 -0.828125 -0.25q-0.375 0 -0.6875 0.234375q-0.296875 0.21875 -0.421875 0.625q-0.1875 0.609375 -0.1875 1.328125l0 3.53125l-1.140625 0zm8.8446045 -2.46875l1.125 0.140625q-0.171875 1.171875 -0.9375 1.828125q-0.765625 0.65625 -1.859375 0.65625q-1.390625 0 -2.234375 -0.90625q-0.8280945 -0.90625 -0.8280945 -2.59375q0 -1.09375 0.359375 -1.90625q0.35934448 -0.828125 1.0937195 -1.234375q0.734375 -0.40625 1.609375 -0.40625q1.09375 0 1.796875 0.5625q0.703125 0.546875 0.890625 1.5625l-1.109375 0.171875q-0.15625 -0.671875 -0.5625 -1.015625q-0.390625 -0.34375 -0.96875 -0.34375q-0.859375 0 -1.40625 0.625q-0.53125 0.609375 -0.53125 1.953125q0 1.359375 0.515625 1.984375q0.515625 0.609375 1.359375 0.609375q0.671875 0 1.125 -0.40625q0.453125 -0.421875 0.5625 -1.28125zm6.8828125 0.296875l1.1875 0.140625q-0.28125 1.046875 -1.046875 1.625q-0.75 0.5625 -1.921875 0.5625q-1.484375 0 -2.359375 -0.90625q-0.859375 -0.921875 -0.859375 -2.5625q0 -1.703125 0.875 -2.640625q0.890625 -0.9375 2.28125 -0.9375q1.359375 0 2.203125 0.921875q0.859375 0.921875 0.859375 2.578125q0 0.109375 0 0.3125l-5.03125 0q0.0625 1.109375 0.625 1.703125q0.5625 0.59375 1.40625 0.59375q0.640625 0 1.078125 -0.328125q0.453125 -0.34375 0.703125 -1.0625zm-3.75 -1.84375l3.765625 0q-0.078125 -0.859375 -0.4375 -1.28125q-0.546875 -0.65625 -1.40625 -0.65625q-0.796875 0 -1.328125 0.53125q-0.53125 0.515625 -0.59375 1.40625z" fill-rule="nonzero"></path><path fill="#cfe2f3" d="m383.03412 330.3832l0 0c0 -13.524475 10.759277 -24.48819 24.031494 -24.48819l0 0c6.3735657 0 12.486053 2.5799866 16.992828 7.1724243c4.5068054 4.592407 7.038666 10.821075 7.038666 17.315765l0 0c0 13.524445 -10.759247 24.48819 -24.031494 24.48819l0 0c-13.272217 0 -24.031494 -10.963745 -24.031494 -24.48819z" fill-rule="nonzero"></path><path stroke="#000000" stroke-width="1.0" stroke-linejoin="round" stroke-linecap="butt" d="m383.03412 330.3832l0 0c0 -13.524475 10.759277 -24.48819 24.031494 -24.48819l0 0c6.3735657 0 12.486053 2.5799866 16.992828 7.1724243c4.5068054 4.592407 7.038666 10.821075 7.038666 17.315765l0 0c0 13.524445 -10.759247 24.48819 -24.031494 24.48819l0 0c-13.272217 0 -24.031494 -10.963745 -24.031494 -24.48819z" fill-rule="nonzero"></path><path fill="#000000" d="m403.5587 334.1232l3.046875 -4.109375l-2.6875 -3.765625l1.25 0l1.421875 2.015625q0.453125 0.640625 0.640625 0.96875q0.25 -0.421875 0.609375 -0.890625l1.59375 -2.09375l1.125 0l-2.765625 3.71875l2.984375 4.15625l-1.28125 0l-1.984375 -2.8125q-0.171875 -0.234375 -0.34375 -0.515625q-0.265625 0.421875 -0.375 0.578125l-1.984375 2.75l-1.25 0z" fill-rule="nonzero"></path><path fill="#cfe2f3" d="m459.0499 200.16548l0 0c0 -13.52446 10.759277 -24.48819 24.031525 -24.48819l0 0c6.373535 0 12.486053 2.5800018 16.992828 7.1724243c4.506775 4.5924225 7.038666 10.821091 7.038666 17.315765l0 0c0 13.524445 -10.759277 24.48819 -24.031494 24.48819l0 0c-13.272247 0 -24.031525 -10.963745 -24.031525 -24.48819z" fill-rule="nonzero"></path><path stroke="#000000" stroke-width="1.0" stroke-linejoin="round" stroke-linecap="butt" d="m459.0499 200.16548l0 0c0 -13.52446 10.759277 -24.48819 24.031525 -24.48819l0 0c6.373535 0 12.486053 2.5800018 16.992828 7.1724243c4.506775 4.5924225 7.038666 10.821091 7.038666 17.315765l0 0c0 13.524445 -10.759277 24.48819 -24.031494 24.48819l0 0c-13.272247 0 -24.031525 -10.963745 -24.031525 -24.48819z" fill-rule="nonzero"></path><path fill="#000000" d="m477.12973 203.90547l0 -7.875l3.5 0q1.046875 0 1.59375 0.21875q0.546875 0.203125 0.875 0.75q0.328125 0.53125 0.328125 1.1875q0 0.828125 -0.546875 1.40625q-0.53125 0.578125 -1.671875 0.734375q0.421875 0.1875 0.625 0.390625q0.46875 0.421875 0.875 1.046875l1.359375 2.140625l-1.296875 0l-1.046875 -1.640625q-0.453125 -0.703125 -0.75 -1.078125q-0.296875 -0.375 -0.53125 -0.53125q-0.234375 -0.15625 -0.46875 -0.203125q-0.1875 -0.046875 -0.59375 -0.046875l-1.203125 0l0 3.5l-1.046875 0zm1.046875 -4.40625l2.234375 0q0.71875 0 1.125 -0.140625q0.40625 -0.140625 0.609375 -0.46875q0.203125 -0.328125 0.203125 -0.703125q0 -0.5625 -0.40625 -0.921875q-0.390625 -0.359375 -1.265625 -0.359375l-2.5 0l0 2.59375zm11.320618 3.484375l0 0.921875l-5.203125 0q0 -0.34375 0.125 -0.671875q0.1875 -0.53125 0.625 -1.046875q0.4375 -0.515625 1.265625 -1.1875q1.28125 -1.0625 1.734375 -1.671875q0.453125 -0.609375 0.453125 -1.15625q0 -0.578125 -0.40625 -0.96875q-0.40625 -0.40625 -1.078125 -0.40625q-0.6875 0 -1.109375 0.421875q-0.421875 0.421875 -0.421875 1.15625l-1.0 -0.09375q0.109375 -1.109375 0.765625 -1.6875q0.671875 -0.59375 1.796875 -0.59375q1.125 0 1.78125 0.625q0.671875 0.625 0.671875 1.5625q0 0.46875 -0.203125 0.9375q-0.1875 0.453125 -0.640625 0.953125q-0.4375 0.5 -1.484375 1.390625q-0.875 0.71875 -1.125 0.984375q-0.234375 0.265625 -0.40625 0.53125l3.859375 0z" fill-rule="nonzero"></path><path fill="#000000" fill-opacity="0.0" d="m437.82208 147.38374c0 7.07341 11.314972 10.611389 22.629944 14.14682c11.314941 3.5354462 22.629913 7.068329 22.629913 14.136642" fill-rule="nonzero"></path><path stroke="#000000" stroke-width="1.0" stroke-linejoin="round" stroke-linecap="butt" d="m437.82208 147.38374c0 7.07341 11.314972 10.611389 22.629944 14.14682c11.314941 3.5354462 22.629913 7.068329 22.629913 14.136642" fill-rule="nonzero"></path><path fill="#cfe2f3" d="m520.39716 200.16548l0 0c0 -13.52446 10.759277 -24.48819 24.031494 -24.48819l0 0c6.373535 0 12.486023 2.5800018 16.992798 7.1724243c4.506836 4.5924225 7.0386963 10.821091 7.0386963 17.315765l0 0c0 13.524445 -10.759277 24.48819 -24.031494 24.48819l0 0c-13.272217 0 -24.031494 -10.963745 -24.031494 -24.48819z" fill-rule="nonzero"></path><path stroke="#000000" stroke-width="1.0" stroke-linejoin="round" stroke-linecap="butt" d="m520.39716 200.16548l0 0c0 -13.52446 10.759277 -24.48819 24.031494 -24.48819l0 0c6.373535 0 12.486023 2.5800018 16.992798 7.1724243c4.506836 4.5924225 7.0386963 10.821091 7.0386963 17.315765l0 0c0 13.524445 -10.759277 24.48819 -24.031494 24.48819l0 0c-13.272217 0 -24.031494 -10.963745 -24.031494 -24.48819z" fill-rule="nonzero"></path><path fill="#000000" d="m538.477 203.90547l0 -7.875l3.5 0q1.046875 0 1.59375 0.21875q0.546875 0.203125 0.875 0.75q0.328125 0.53125 0.328125 1.1875q0 0.828125 -0.546875 1.40625q-0.53125 0.578125 -1.671875 0.734375q0.421875 0.1875 0.625 0.390625q0.46875 0.421875 0.875 1.046875l1.359375 2.140625l-1.296875 0l-1.046875 -1.640625q-0.453125 -0.703125 -0.75 -1.078125q-0.296875 -0.375 -0.53125 -0.53125q-0.234375 -0.15625 -0.46875 -0.203125q-0.1875 -0.046875 -0.59375 -0.046875l-1.203125 0l0 3.5l-1.046875 0zm1.046875 -4.40625l2.234375 0q0.71875 0 1.125 -0.140625q0.40625 -0.140625 0.609375 -0.46875q0.203125 -0.328125 0.203125 -0.703125q0 -0.5625 -0.40625 -0.921875q-0.390625 -0.359375 -1.265625 -0.359375l-2.5 0l0 2.59375zm9.883057 4.40625l-0.96875 0l0 -6.15625q-0.34375 0.328125 -0.90625 0.671875q-0.5625 0.328125 -1.015625 0.484375l0 -0.9375q0.8125 -0.375 1.40625 -0.90625q0.609375 -0.546875 0.859375 -1.0625l0.625 0l0 7.90625z" fill-rule="nonzero"></path><path fill="#cfe2f3" d="m575.7696 200.16548l0 0c0 -13.52446 10.759216 -24.48819 24.031494 -24.48819l0 0c6.373535 0 12.486023 2.5800018 16.992798 7.1724243c4.506775 4.5924225 7.0386963 10.821091 7.0386963 17.315765l0 0c0 13.524445 -10.759277 24.48819 -24.031494 24.48819l0 0c-13.272278 0 -24.031494 -10.963745 -24.031494 -24.48819z" fill-rule="nonzero"></path><path stroke="#000000" stroke-width="1.0" stroke-linejoin="round" stroke-linecap="butt" d="m575.7696 200.16548l0 0c0 -13.52446 10.759216 -24.48819 24.031494 -24.48819l0 0c6.373535 0 12.486023 2.5800018 16.992798 7.1724243c4.506775 4.5924225 7.0386963 10.821091 7.0386963 17.315765l0 0c0 13.524445 -10.759277 24.48819 -24.031494 24.48819l0 0c-13.272278 0 -24.031494 -10.963745 -24.031494 -24.48819z" fill-rule="nonzero"></path><path fill="#000000" d="m593.84937 203.90547l0 -7.875l3.5 0q1.046875 0 1.59375 0.21875q0.546875 0.203125 0.875 0.75q0.328125 0.53125 0.328125 1.1875q0 0.828125 -0.546875 1.40625q-0.53125 0.578125 -1.671875 0.734375q0.421875 0.1875 0.625 0.390625q0.46875 0.421875 0.875 1.046875l1.359375 2.140625l-1.296875 0l-1.046875 -1.640625q-0.453125 -0.703125 -0.75 -1.078125q-0.296875 -0.375 -0.53125 -0.53125q-0.234375 -0.15625 -0.46875 -0.203125q-0.1875 -0.046875 -0.59375 -0.046875l-1.203125 0l0 3.5l-1.046875 0zm1.046875 -4.40625l2.234375 0q0.71875 0 1.125 -0.140625q0.40625 -0.140625 0.609375 -0.46875q0.203125 -0.328125 0.203125 -0.703125q0 -0.5625 -0.40625 -0.921875q-0.390625 -0.359375 -1.265625 -0.359375l-2.5 0l0 2.59375zm11.320618 3.484375l0 0.921875l-5.203125 0q0 -0.34375 0.125 -0.671875q0.1875 -0.53125 0.625 -1.046875q0.4375 -0.515625 1.265625 -1.1875q1.28125 -1.0625 1.734375 -1.671875q0.453125 -0.609375 0.453125 -1.15625q0 -0.578125 -0.40625 -0.96875q-0.40625 -0.40625 -1.078125 -0.40625q-0.6875 0 -1.109375 0.421875q-0.421875 0.421875 -0.421875 1.15625l-1.0 -0.09375q0.109375 -1.109375 0.765625 -1.6875q0.671875 -0.59375 1.796875 -0.59375q1.125 0 1.78125 0.625q0.671875 0.625 0.671875 1.5625q0 0.46875 -0.203125 0.9375q-0.1875 0.453125 -0.640625 0.953125q-0.4375 0.5 -1.484375 1.390625q-0.875 0.71875 -1.125 0.984375q-0.234375 0.265625 -0.40625 0.53125l3.859375 0z" fill-rule="nonzero"></path><path fill="#cfe2f3" d="m631.14197 200.16548l0 0c0 -13.52446 10.759216 -24.48819 24.031494 -24.48819l0 0c6.373535 0 12.486023 2.5800018 16.992798 7.1724243c4.506775 4.5924225 7.0386963 10.821091 7.0386963 17.315765l0 0c0 13.524445 -10.759277 24.48819 -24.031494 24.48819l0 0c-13.272278 0 -24.031494 -10.963745 -24.031494 -24.48819z" fill-rule="nonzero"></path><path stroke="#000000" stroke-width="1.0" stroke-linejoin="round" stroke-linecap="butt" d="m631.14197 200.16548l0 0c0 -13.52446 10.759216 -24.48819 24.031494 -24.48819l0 0c6.373535 0 12.486023 2.5800018 16.992798 7.1724243c4.506775 4.5924225 7.0386963 10.821091 7.0386963 17.315765l0 0c0 13.524445 -10.759277 24.48819 -24.031494 24.48819l0 0c-13.272278 0 -24.031494 -10.963745 -24.031494 -24.48819z" fill-rule="nonzero"></path><path fill="#000000" d="m649.22174 203.90547l0 -7.875l3.5 0q1.046875 0 1.59375 0.21875q0.546875 0.203125 0.875 0.75q0.328125 0.53125 0.328125 1.1875q0 0.828125 -0.546875 1.40625q-0.53125 0.578125 -1.671875 0.734375q0.421875 0.1875 0.625 0.390625q0.46875 0.421875 0.875 1.046875l1.359375 2.140625l-1.296875 0l-1.046875 -1.640625q-0.453125 -0.703125 -0.75 -1.078125q-0.296875 -0.375 -0.53125 -0.53125q-0.234375 -0.15625 -0.46875 -0.203125q-0.1875 -0.046875 -0.59375 -0.046875l-1.203125 0l0 3.5l-1.046875 0zm1.046875 -4.40625l2.234375 0q0.71875 0 1.125 -0.140625q0.40625 -0.140625 0.609375 -0.46875q0.203125 -0.328125 0.203125 -0.703125q0 -0.5625 -0.40625 -0.921875q-0.390625 -0.359375 -1.265625 -0.359375l-2.5 0l0 2.59375zm9.883118 4.40625l-0.96875 0l0 -6.15625q-0.34375 0.328125 -0.90625 0.671875q-0.5625 0.328125 -1.015625 0.484375l0 -0.9375q0.8125 -0.375 1.40625 -0.90625q0.609375 -0.546875 0.859375 -1.0625l0.625 0l0 7.90625z" fill-rule="nonzero"></path><path fill="#cfe2f3" d="m686.5143 200.16548l0 0c0 -13.52446 10.759277 -24.48819 24.031555 -24.48819l0 0c6.373535 0 12.486023 2.5800018 16.992798 7.1724243c4.506775 4.5924225 7.0386963 10.821091 7.0386963 17.315765l0 0c0 13.524445 -10.759277 24.48819 -24.031494 24.48819l0 0c-13.272278 0 -24.031555 -10.963745 -24.031555 -24.48819z" fill-rule="nonzero"></path><path stroke="#000000" stroke-width="1.0" stroke-linejoin="round" stroke-linecap="butt" d="m686.5143 200.16548l0 0c0 -13.52446 10.759277 -24.48819 24.031555 -24.48819l0 0c6.373535 0 12.486023 2.5800018 16.992798 7.1724243c4.506775 4.5924225 7.0386963 10.821091 7.0386963 17.315765l0 0c0 13.524445 -10.759277 24.48819 -24.031494 24.48819l0 0c-13.272278 0 -24.031555 -10.963745 -24.031555 -24.48819z" fill-rule="nonzero"></path><path fill="#000000" d="m704.5941 203.90547l0 -7.875l3.5 0q1.046875 0 1.59375 0.21875q0.546875 0.203125 0.875 0.75q0.328125 0.53125 0.328125 1.1875q0 0.828125 -0.546875 1.40625q-0.53125 0.578125 -1.671875 0.734375q0.421875 0.1875 0.625 0.390625q0.46875 0.421875 0.875 1.046875l1.359375 2.140625l-1.296875 0l-1.046875 -1.640625q-0.453125 -0.703125 -0.75 -1.078125q-0.296875 -0.375 -0.53125 -0.53125q-0.234375 -0.15625 -0.46875 -0.203125q-0.1875 -0.046875 -0.59375 -0.046875l-1.203125 0l0 3.5l-1.046875 0zm1.046875 -4.40625l2.234375 0q0.71875 0 1.125 -0.140625q0.40625 -0.140625 0.609375 -0.46875q0.203125 -0.328125 0.203125 -0.703125q0 -0.5625 -0.40625 -0.921875q-0.390625 -0.359375 -1.265625 -0.359375l-2.5 0l0 2.59375zm11.320618 3.484375l0 0.921875l-5.203125 0q0 -0.34375 0.125 -0.671875q0.1875 -0.53125 0.625 -1.046875q0.4375 -0.515625 1.265625 -1.1875q1.28125 -1.0625 1.734375 -1.671875q0.453125 -0.609375 0.453125 -1.15625q0 -0.578125 -0.40625 -0.96875q-0.40625 -0.40625 -1.078125 -0.40625q-0.6875 0 -1.109375 0.421875q-0.421875 0.421875 -0.421875 1.15625l-1.0 -0.09375q0.109375 -1.109375 0.765625 -1.6875q0.671875 -0.59375 1.796875 -0.59375q1.125 0 1.78125 0.625q0.671875 0.625 0.671875 1.5625q0 0.46875 -0.203125 0.9375q-0.1875 0.453125 -0.640625 0.953125q-0.4375 0.5 -1.484375 1.390625q-0.875 0.71875 -1.125 0.984375q-0.234375 0.265625 -0.40625 0.53125l3.859375 0z" fill-rule="nonzero"></path><path fill="#cfe2f3" d="m741.88666 200.16548l0 0c0 -13.52446 10.759277 -24.48819 24.031494 -24.48819l0 0c6.373535 0 12.486023 2.5800018 16.992798 7.1724243c4.506836 4.5924225 7.0386963 10.821091 7.0386963 17.315765l0 0c0 13.524445 -10.759277 24.48819 -24.031494 24.48819l0 0c-13.272217 0 -24.031494 -10.963745 -24.031494 -24.48819z" fill-rule="nonzero"></path><path stroke="#000000" stroke-width="1.0" stroke-linejoin="round" stroke-linecap="butt" d="m741.88666 200.16548l0 0c0 -13.52446 10.759277 -24.48819 24.031494 -24.48819l0 0c6.373535 0 12.486023 2.5800018 16.992798 7.1724243c4.506836 4.5924225 7.0386963 10.821091 7.0386963 17.315765l0 0c0 13.524445 -10.759277 24.48819 -24.031494 24.48819l0 0c-13.272217 0 -24.031494 -10.963745 -24.031494 -24.48819z" fill-rule="nonzero"></path><path fill="#000000" d="m759.9665 203.90547l0 -7.875l3.5 0q1.046875 0 1.59375 0.21875q0.546875 0.203125 0.875 0.75q0.328125 0.53125 0.328125 1.1875q0 0.828125 -0.546875 1.40625q-0.53125 0.578125 -1.671875 0.734375q0.421875 0.1875 0.625 0.390625q0.46875 0.421875 0.875 1.046875l1.359375 2.140625l-1.296875 0l-1.046875 -1.640625q-0.453125 -0.703125 -0.75 -1.078125q-0.296875 -0.375 -0.53125 -0.53125q-0.234375 -0.15625 -0.46875 -0.203125q-0.1875 -0.046875 -0.59375 -0.046875l-1.203125 0l0 3.5l-1.046875 0zm1.046875 -4.40625l2.234375 0q0.71875 0 1.125 -0.140625q0.40625 -0.140625 0.609375 -0.46875q0.203125 -0.328125 0.203125 -0.703125q0 -0.5625 -0.40625 -0.921875q-0.390625 -0.359375 -1.265625 -0.359375l-2.5 0l0 2.59375zm6.2580566 2.328125l0.953125 -0.125q0.171875 0.8125 0.5625 1.1875q0.40625 0.359375 0.984375 0.359375q0.6875 0 1.15625 -0.46875q0.46875 -0.484375 0.46875 -1.171875q0 -0.671875 -0.4375 -1.09375q-0.4375 -0.4375 -1.109375 -0.4375q-0.265625 0 -0.671875 0.09375l0.09375 -0.84375q0.109375 0.015625 0.15625 0.015625q0.625 0 1.109375 -0.3125q0.5 -0.328125 0.5 -1.0q0 -0.53125 -0.359375 -0.875q-0.359375 -0.359375 -0.921875 -0.359375q-0.5625 0 -0.9375 0.359375q-0.375 0.34375 -0.484375 1.0625l-0.96875 -0.171875q0.171875 -0.984375 0.796875 -1.515625q0.640625 -0.53125 1.5625 -0.53125q0.65625 0 1.1875 0.28125q0.546875 0.265625 0.828125 0.75q0.296875 0.484375 0.296875 1.015625q0 0.515625 -0.28125 0.9375q-0.265625 0.40625 -0.8125 0.65625q0.703125 0.15625 1.09375 0.671875q0.390625 0.5 0.390625 1.265625q0 1.03125 -0.765625 1.75q-0.75 0.71875 -1.890625 0.71875q-1.046875 0 -1.734375 -0.609375q-0.671875 -0.625 -0.765625 -1.609375z" fill-rule="nonzero"></path><path fill="#000000" fill-opacity="0.0" d="m559.3058 147.38374c0 7.07341 -3.7164917 10.611389 -7.4330444 14.14682c-3.7165527 3.5354462 -7.4330444 7.068329 -7.4330444 14.136642" fill-rule="nonzero"></path><path stroke="#000000" stroke-width="1.0" stroke-linejoin="round" stroke-linecap="butt" d="m559.3058 147.38374c0 7.07341 -3.7164917 10.611389 -7.4330444 14.14682c-3.7165527 3.5354462 -7.4330444 7.068329 -7.4330444 14.136642" fill-rule="nonzero"></path><path fill="#000000" fill-opacity="0.0" d="m559.3058 147.38374c0 7.07341 10.126038 10.611389 20.252014 14.14682c10.125977 3.5354462 20.251953 7.068329 20.251953 14.136642" fill-rule="nonzero"></path><path stroke="#000000" stroke-width="1.0" stroke-linejoin="round" stroke-linecap="butt" d="m559.3058 147.38374c0 7.07341 10.126038 10.611389 20.252014 14.14682c10.125977 3.5354462 20.251953 7.068329 20.251953 14.136642" fill-rule="nonzero"></path><path fill="#000000" fill-opacity="0.0" d="m680.7895 147.38374c0 7.07341 -6.4015503 10.611389 -12.803162 14.14682c-6.4015503 3.5354462 -12.803162 7.068329 -12.803162 14.136642" fill-rule="nonzero"></path><path stroke="#000000" stroke-width="1.0" stroke-linejoin="round" stroke-linecap="butt" d="m680.7895 147.38374c0 7.07341 -6.4015503 10.611389 -12.803162 14.14682c-6.4015503 3.5354462 -12.803162 7.068329 -12.803162 14.136642" fill-rule="nonzero"></path><path fill="#000000" fill-opacity="0.0" d="m680.7895 147.38374c0 7.07341 7.440918 10.611389 14.881897 14.14682c7.440918 3.5354462 14.881897 7.068329 14.881897 14.136642" fill-rule="nonzero"></path><path stroke="#000000" stroke-width="1.0" stroke-linejoin="round" stroke-linecap="butt" d="m680.7895 147.38374c0 7.07341 7.440918 10.611389 14.881897 14.14682c7.440918 3.5354462 14.881897 7.068329 14.881897 14.136642" fill-rule="nonzero"></path><path fill="#000000" fill-opacity="0.0" d="m680.7895 147.38374c0 7.07341 21.283447 10.611389 42.566956 14.14682c21.283447 3.5354462 42.566895 7.068329 42.566895 14.136642" fill-rule="nonzero"></path><path stroke="#000000" stroke-width="1.0" stroke-linejoin="round" stroke-linecap="butt" d="m680.7895 147.38374c0 7.07341 21.283447 10.611389 42.566956 14.14682c21.283447 3.5354462 42.566895 7.068329 42.566895 14.136642" fill-rule="nonzero"></path><path fill="#000000" fill-opacity="0.0" d="m64.79374 182.32634l121.48031 0l0 36.53543l-121.48031 0z" fill-rule="nonzero"></path><path fill="#ff0000" d="m74.41874 199.5951q0 -2.3125 1.234375 -3.625q1.25 -1.3125 3.21875 -1.3125q1.296875 0 2.328125 0.625q1.03125 0.609375 1.578125 1.71875q0.546875 1.09375 0.546875 2.484375q0 1.421875 -0.578125 2.546875q-0.5625 1.109375 -1.609375 1.6875q-1.046875 0.5625 -2.265625 0.5625q-1.3125 0 -2.359375 -0.625q-1.03125 -0.640625 -1.5625 -1.734375q-0.53125 -1.109375 -0.53125 -2.328125zm1.265625 0.015625q0 1.6875 0.90625 2.65625q0.90625 0.96875 2.28125 0.96875q1.390625 0 2.28125 -0.96875q0.90625 -0.984375 0.90625 -2.78125q0 -1.140625 -0.390625 -1.984375q-0.390625 -0.859375 -1.125 -1.3125q-0.734375 -0.46875 -1.65625 -0.46875q-1.3125 0 -2.265625 0.90625q-0.9375 0.890625 -0.9375 2.984375zm10.382675 4.515625l-1.0625 0l0 -9.3125l1.15625 0l0 3.328125q0.71875 -0.90625 1.84375 -0.90625q0.625 0 1.171875 0.25q0.5625 0.25 0.921875 0.703125q0.359375 0.453125 0.5625 1.09375q0.203125 0.640625 0.203125 1.375q0 1.734375 -0.859375 2.6875q-0.859375 0.9375 -2.0625 0.9375q-1.1875 0 -1.875 -1.0l0 0.84375zm-0.015625 -3.421875q0 1.21875 0.34375 1.75q0.53125 0.890625 1.453125 0.890625q0.75 0 1.296875 -0.65625q0.546875 -0.65625 0.546875 -1.9375q0 -1.328125 -0.53125 -1.953125q-0.515625 -0.625 -1.265625 -0.625q-0.75 0 -1.296875 0.65625q-0.546875 0.640625 -0.546875 1.875zm6.3656006 -4.5625l0 -1.328125l1.15625 0l0 1.328125l-1.15625 0zm-1.4375 10.59375l0.21875 -0.96875q0.34375 0.09375 0.53125 0.09375q0.359375 0 0.515625 -0.234375q0.171875 -0.234375 0.171875 -1.15625l0 -7.078125l1.15625 0l0 7.109375q0 1.234375 -0.328125 1.71875q-0.421875 0.640625 -1.375 0.640625q-0.46875 0 -0.890625 -0.125zm9.02359 -4.78125l1.1875 0.140625q-0.28125 1.046875 -1.046875 1.625q-0.75 0.5625 -1.921875 0.5625q-1.484375 0 -2.359375 -0.90625q-0.859375 -0.921875 -0.859375 -2.5625q0 -1.703125 0.875 -2.640625q0.890625 -0.9375 2.28125 -0.9375q1.359375 0 2.203125 0.921875q0.859375 0.921875 0.859375 2.578125q0 0.109375 0 0.3125l-5.03125 0q0.0625 1.109375 0.625 1.703125q0.5625 0.59375 1.40625 0.59375q0.640625 0 1.078125 -0.328125q0.453125 -0.34375 0.703125 -1.0625zm-3.75 -1.84375l3.765625 0q-0.078125 -0.859375 -0.4375 -1.28125q-0.546875 -0.65625 -1.40625 -0.65625q-0.796875 0 -1.328125 0.53125q-0.53125 0.515625 -0.59375 1.40625zm10.943726 1.546875l1.125 0.140625q-0.171875 1.171875 -0.9375 1.828125q-0.765625 0.65625 -1.859375 0.65625q-1.390625 0 -2.234375 -0.90625q-0.828125 -0.90625 -0.828125 -2.59375q0 -1.09375 0.359375 -1.90625q0.359375 -0.828125 1.09375 -1.234375q0.734375 -0.40625 1.609375 -0.40625q1.09375 0 1.796875 0.5625q0.703125 0.546875 0.890625 1.5625l-1.109375 0.171875q-0.15625 -0.671875 -0.5625 -1.015625q-0.390625 -0.34375 -0.96875 -0.34375q-0.859375 0 -1.40625 0.625q-0.53125 0.609375 -0.53125 1.953125q0 1.359375 0.515625 1.984375q0.515625 0.609375 1.359375 0.609375q0.671875 0 1.125 -0.40625q0.453125 -0.421875 0.5625 -1.28125zm4.7734375 1.453125l0.15625 1.0q-0.484375 0.109375 -0.859375 0.109375q-0.625 0 -0.96875 -0.203125q-0.34375 -0.203125 -0.484375 -0.515625q-0.140625 -0.328125 -0.140625 -1.34375l0 -3.890625l-0.828125 0l0 -0.875l0.828125 0l0 -1.671875l1.140625 -0.6875l0 2.359375l1.15625 0l0 0.875l-1.15625 0l0 3.953125q0 0.484375 0.0625 0.625q0.0625 0.140625 0.1875 0.21875q0.140625 0.078125 0.390625 0.078125q0.203125 0 0.515625 -0.03125zm1.5623627 1.015625l0 -9.3125l1.21875 0l0 9.3125l-1.21875 0zm3.4842377 0l0 -9.3125l3.203125 0q1.09375 0 1.65625 0.140625q0.8125 0.1875 1.375 0.671875q0.734375 0.609375 1.09375 1.578125q0.375 0.96875 0.375 2.21875q0 1.0625 -0.25 1.890625q-0.25 0.8125 -0.640625 1.34375q-0.390625 0.53125 -0.859375 0.84375q-0.453125 0.3125 -1.109375 0.46875q-0.640625 0.15625 -1.484375 0.15625l-3.359375 0zm1.234375 -1.09375l1.984375 0q0.921875 0 1.4375 -0.171875q0.53125 -0.171875 0.84375 -0.484375q0.4375 -0.4375 0.671875 -1.171875q0.25 -0.75 0.25 -1.796875q0 -1.46875 -0.484375 -2.25q-0.46875 -0.78125 -1.15625 -1.046875q-0.5 -0.1875 -1.59375 -0.1875l-1.953125 0l0 7.109375z" fill-rule="nonzero"></path><path fill="#000000" fill-opacity="0.0" d="m64.79374 242.85892l121.48031 0l0 36.53543l-121.48031 0z" fill-rule="nonzero"></path><path fill="#ff0000" d="m74.41874 260.1277q0 -2.3125 1.234375 -3.625q1.25 -1.3125153 3.21875 -1.3125153q1.296875 0 2.328125 0.625q1.03125 0.60939026 1.578125 1.7187653q0.546875 1.09375 0.546875 2.484375q0 1.421875 -0.578125 2.546875q-0.5625 1.109375 -1.609375 1.6875q-1.046875 0.5625 -2.265625 0.5625q-1.3125 0 -2.359375 -0.625q-1.03125 -0.640625 -1.5625 -1.734375q-0.53125 -1.109375 -0.53125 -2.328125zm1.265625 0.015625q0 1.6875 0.90625 2.65625q0.90625 0.96875 2.28125 0.96875q1.390625 0 2.28125 -0.96875q0.90625 -0.984375 0.90625 -2.78125q0 -1.140625 -0.390625 -1.984375q-0.390625 -0.859375 -1.125 -1.3125q-0.734375 -0.46875 -1.65625 -0.46875q-1.3125 0 -2.265625 0.90625q-0.9375 0.890625 -0.9375 2.984375zm10.382675 4.515625l-1.0625 0l0 -9.312515l1.15625 0l0 3.3281403q0.71875 -0.90625 1.84375 -0.90625q0.625 0 1.171875 0.25q0.5625 0.25 0.921875 0.703125q0.359375 0.453125 0.5625 1.09375q0.203125 0.640625 0.203125 1.375q0 1.734375 -0.859375 2.6875q-0.859375 0.9375 -2.0625 0.9375q-1.1875 0 -1.875 -1.0l0 0.84375zm-0.015625 -3.421875q0 1.21875 0.34375 1.75q0.53125 0.890625 1.453125 0.890625q0.75 0 1.296875 -0.65625q0.546875 -0.65625 0.546875 -1.9375q0 -1.328125 -0.53125 -1.953125q-0.515625 -0.625 -1.265625 -0.625q-0.75 0 -1.296875 0.65625q-0.546875 0.640625 -0.546875 1.875zm6.3656006 -4.5625l0 -1.3281403l1.15625 0l0 1.3281403l-1.15625 0zm-1.4375 10.59375l0.21875 -0.96875q0.34375 0.09375 0.53125 0.09375q0.359375 0 0.515625 -0.234375q0.171875 -0.234375 0.171875 -1.15625l0 -7.078125l1.15625 0l0 7.109375q0 1.234375 -0.328125 1.71875q-0.421875 0.640625 -1.375 0.640625q-0.46875 0 -0.890625 -0.125zm9.02359 -4.78125l1.1875 0.140625q-0.28125 1.046875 -1.046875 1.625q-0.75 0.5625 -1.921875 0.5625q-1.484375 0 -2.359375 -0.90625q-0.859375 -0.921875 -0.859375 -2.5625q0 -1.703125 0.875 -2.640625q0.890625 -0.9375 2.28125 -0.9375q1.359375 0 2.203125 0.921875q0.859375 0.921875 0.859375 2.578125q0 0.109375 0 0.3125l-5.03125 0q0.0625 1.109375 0.625 1.703125q0.5625 0.59375 1.40625 0.59375q0.640625 0 1.078125 -0.328125q0.453125 -0.34375 0.703125 -1.0625zm-3.75 -1.84375l3.765625 0q-0.078125 -0.859375 -0.4375 -1.28125q-0.546875 -0.65625 -1.40625 -0.65625q-0.796875 0 -1.328125 0.53125q-0.53125 0.515625 -0.59375 1.40625zm10.943726 1.546875l1.125 0.140625q-0.171875 1.171875 -0.9375 1.828125q-0.765625 0.65625 -1.859375 0.65625q-1.390625 0 -2.234375 -0.90625q-0.828125 -0.90625 -0.828125 -2.59375q0 -1.09375 0.359375 -1.90625q0.359375 -0.828125 1.09375 -1.234375q0.734375 -0.40625 1.609375 -0.40625q1.09375 0 1.796875 0.5625q0.703125 0.546875 0.890625 1.5625l-1.109375 0.171875q-0.15625 -0.671875 -0.5625 -1.015625q-0.390625 -0.34375 -0.96875 -0.34375q-0.859375 0 -1.40625 0.625q-0.53125 0.609375 -0.53125 1.953125q0 1.359375 0.515625 1.984375q0.515625 0.609375 1.359375 0.609375q0.671875 0 1.125 -0.40625q0.453125 -0.421875 0.5625 -1.28125zm4.7734375 1.453125l0.15625 1.0q-0.484375 0.109375 -0.859375 0.109375q-0.625 0 -0.96875 -0.203125q-0.34375 -0.203125 -0.484375 -0.515625q-0.140625 -0.328125 -0.140625 -1.34375l0 -3.890625l-0.828125 0l0 -0.875l0.828125 0l0 -1.671875l1.140625 -0.68751526l0 2.3593903l1.15625 0l0 0.875l-1.15625 0l0 3.953125q0 0.484375 0.0625 0.625q0.0625 0.140625 0.1875 0.21875q0.140625 0.078125 0.390625 0.078125q0.203125 0 0.515625 -0.03125zm1.5623627 1.015625l0 -9.312515l1.21875 0l0 9.312515l-1.21875 0zm3.3436127 0l0 -6.734375l1.03125 0l0 0.953125q0.734375 -1.109375 2.140625 -1.109375q0.609375 0 1.109375 0.21875q0.515625 0.21875 0.765625 0.578125q0.265625 0.34375 0.359375 0.84375q0.0625 0.3125 0.0625 1.109375l0 4.140625l-1.140625 0l0 -4.09375q0 -0.703125 -0.140625 -1.046875q-0.125 -0.34375 -0.46875 -0.546875q-0.328125 -0.21875 -0.78125 -0.21875q-0.734375 0 -1.265625 0.46875q-0.53125 0.453125 -0.53125 1.75l0 3.6875l-1.140625 0zm6.9593506 -2.015625l1.125 -0.171875q0.09375 0.671875 0.53125 1.046875q0.4375 0.359375 1.21875 0.359375q0.78125 0 1.15625 -0.3125q0.39063263 -0.328125 0.39063263 -0.765625q0 -0.390625 -0.34375763 -0.609375q-0.234375 -0.15625 -1.171875 -0.390625q-1.25 -0.3125 -1.734375 -0.546875q-0.484375 -0.234375 -0.734375 -0.640625q-0.25 -0.40625 -0.25 -0.90625q0 -0.453125 0.203125 -0.828125q0.203125 -0.390625 0.5625 -0.640625q0.265625 -0.203125 0.71875 -0.328125q0.46875 -0.140625 1.0 -0.140625q0.78125 0 1.375 0.234375q0.6093826 0.21875 0.8906326 0.609375q0.296875 0.390625 0.40625 1.046875l-1.125 0.15625q-0.07813263 -0.53125 -0.43750763 -0.8125q-0.359375 -0.296875 -1.03125 -0.296875q-0.78125 0 -1.125 0.265625q-0.34375 0.25 -0.34375 0.609375q0 0.21875 0.140625 0.390625q0.140625 0.1875 0.4375 0.3125q0.171875 0.0625 1.015625 0.28125q1.21875 0.328125 1.6875076 0.53125q0.484375 0.203125 0.75 0.609375q0.28125 0.390625 0.28125 0.96875q0 0.578125 -0.34375 1.078125q-0.328125 0.5 -0.953125 0.78125q-0.6250076 0.28125 -1.4218826 0.28125q-1.3125 0 -2.0 -0.546875q-0.6875 -0.546875 -0.875 -1.625zm9.617195 1.0l0.15625 1.0q-0.484375 0.109375 -0.859375 0.109375q-0.625 0 -0.96875 -0.203125q-0.34375 -0.203125 -0.484375 -0.515625q-0.140625 -0.328125 -0.140625 -1.34375l0 -3.890625l-0.828125 0l0 -0.875l0.828125 0l0 -1.671875l1.140625 -0.68751526l0 2.3593903l1.15625 0l0 0.875l-1.15625 0l0 3.953125q0 0.484375 0.0625 0.625q0.0625 0.140625 0.1875 0.21875q0.140625 0.078125 0.390625 0.078125q0.203125 0 0.515625 -0.03125zm5.5936127 0.1875q-0.625 0.53125 -1.21875 0.765625q-0.578125 0.21875 -1.25 0.21875q-1.125 0 -1.71875 -0.546875q-0.59375 -0.546875 -0.59375 -1.390625q0 -0.484375 0.21875 -0.890625q0.234375 -0.421875 0.59375 -0.671875q0.375 -0.25 0.828125 -0.375q0.328125 -0.078125 1.015625 -0.171875q1.375 -0.15625 2.03125 -0.390625q0.015625 -0.234375 0.015625 -0.296875q0 -0.703125 -0.328125 -0.984375q-0.4375 -0.390625 -1.296875 -0.390625q-0.8125 0 -1.203125 0.28125q-0.375 0.28125 -0.5625 1.0l-1.109375 -0.140625q0.140625 -0.71875 0.484375 -1.15625q0.359375 -0.453125 1.015625 -0.6875q0.671875 -0.234375 1.53125 -0.234375q0.875 0 1.40625 0.203125q0.546875 0.203125 0.796875 0.515625q0.25 0.296875 0.359375 0.765625q0.046875 0.296875 0.046875 1.0625l0 1.515625q0 1.59375 0.078125 2.015625q0.078125 0.421875 0.28125 0.8125l-1.1875 0q-0.171875 -0.359375 -0.234375 -0.828125zm-0.09375 -2.5625q-0.625 0.265625 -1.859375 0.4375q-0.703125 0.109375 -1.0 0.234375q-0.296875 0.125 -0.453125 0.375q-0.15625 0.234375 -0.15625 0.53125q0 0.453125 0.34375 0.765625q0.34375 0.296875 1.015625 0.296875q0.65625 0 1.171875 -0.28125q0.515625 -0.296875 0.765625 -0.796875q0.171875 -0.375 0.171875 -1.140625l0 -0.421875zm3.1156006 3.390625l0 -6.734375l1.03125 0l0 0.953125q0.734375 -1.109375 2.140625 -1.109375q0.609375 0 1.109375 0.21875q0.515625 0.21875 0.765625 0.578125q0.265625 0.34375 0.359375 0.84375q0.0625 0.3125 0.0625 1.109375l0 4.140625l-1.140625 0l0 -4.09375q0 -0.703125 -0.140625 -1.046875q-0.125 -0.34375 -0.46875 -0.546875q-0.328125 -0.21875 -0.78125 -0.21875q-0.734375 0 -1.265625 0.46875q-0.53125 0.453125 -0.53125 1.75l0 3.6875l-1.140625 0zm11.803101 -2.46875l1.125 0.140625q-0.171875 1.171875 -0.9375 1.828125q-0.765625 0.65625 -1.859375 0.65625q-1.390625 0 -2.234375 -0.90625q-0.828125 -0.90625 -0.828125 -2.59375q0 -1.09375 0.359375 -1.90625q0.359375 -0.828125 1.09375 -1.234375q0.734375 -0.40625 1.609375 -0.40625q1.09375 0 1.796875 0.5625q0.703125 0.546875 0.890625 1.5625l-1.109375 0.171875q-0.15625 -0.671875 -0.5625 -1.015625q-0.390625 -0.34375 -0.96875 -0.34375q-0.859375 0 -1.40625 0.625q-0.53125 0.609375 -0.53125 1.953125q0 1.359375 0.515625 1.984375q0.515625 0.609375 1.359375 0.609375q0.671875 0 1.125 -0.40625q0.453125 -0.421875 0.5625 -1.28125zm6.8828125 0.296875l1.1875 0.140625q-0.28125 1.046875 -1.046875 1.625q-0.75 0.5625 -1.921875 0.5625q-1.484375 0 -2.359375 -0.90625q-0.859375 -0.921875 -0.859375 -2.5625q0 -1.703125 0.875 -2.640625q0.890625 -0.9375 2.28125 -0.9375q1.359375 0 2.203125 0.921875q0.859375 0.921875 0.859375 2.578125q0 0.109375 0 0.3125l-5.03125 0q0.0625 1.109375 0.625 1.703125q0.5625 0.59375 1.40625 0.59375q0.640625 0 1.078125 -0.328125q0.453125 -0.34375 0.703125 -1.0625zm-3.75 -1.84375l3.765625 0q-0.078125 -0.859375 -0.4375 -1.28125q-0.546875 -0.65625 -1.40625 -0.65625q-0.796875 0 -1.328125 0.53125q-0.53125 0.515625 -0.59375 1.40625z" fill-rule="nonzero"></path><path fill="#000000" fill-opacity="0.0" d="m64.79374 312.9197l121.48031 0l0 36.53543l-121.48031 0z" fill-rule="nonzero"></path><path fill="#ff0000" d="m74.809364 334.71973l0 -9.3125l4.125 0q1.25 0 1.890625 0.265625q0.65625 0.25 1.046875 0.890625q0.390625 0.625 0.390625 1.390625q0 0.984375 -0.65625 1.671875q-0.640625 0.671875 -1.96875 0.859375q0.484375 0.234375 0.734375 0.46875q0.546875 0.484375 1.03125 1.234375l1.609375 2.53125l-1.546875 0l-1.234375 -1.9375q-0.53125 -0.84375 -0.890625 -1.28125q-0.34375 -0.4375 -0.625 -0.609375q-0.265625 -0.1875 -0.546875 -0.265625q-0.21875 -0.03125 -0.6875 -0.03125l-1.4375 0l0 4.125l-1.234375 0zm1.234375 -5.203125l2.65625 0q0.84375 0 1.3125 -0.171875q0.484375 -0.171875 0.71875 -0.546875q0.25 -0.390625 0.25 -0.84375q0 -0.65625 -0.484375 -1.078125q-0.46875 -0.4375 -1.5 -0.4375l-2.953125 0l0 3.078125zm12.843903 3.03125l1.1875 0.140625q-0.28125 1.046875 -1.046875 1.625q-0.75 0.5625 -1.921875 0.5625q-1.484375 0 -2.359375 -0.90625q-0.859375 -0.921875 -0.859375 -2.5625q0 -1.703125 0.875 -2.640625q0.890625 -0.9375 2.28125 -0.9375q1.359375 0 2.203125 0.921875q0.859375 0.921875 0.859375 2.578125q0 0.109375 0 0.3125l-5.03125 0q0.0625 1.109375 0.625 1.703125q0.5625 0.59375 1.40625 0.59375q0.640625 0 1.078125 -0.328125q0.453125 -0.34375 0.703125 -1.0625zm-3.75 -1.84375l3.765625 0q-0.078125 -0.859375 -0.4375 -1.28125q-0.546875 -0.65625 -1.40625 -0.65625q-0.796875 0 -1.328125 0.53125q-0.53125 0.515625 -0.59375 1.40625zm6.0999756 2.0l1.125 -0.171875q0.09375 0.671875 0.53125 1.046875q0.4375 0.359375 1.21875 0.359375q0.78125 0 1.15625 -0.3125q0.390625 -0.328125 0.390625 -0.765625q0 -0.390625 -0.34375 -0.609375q-0.234375 -0.15625 -1.171875 -0.390625q-1.25 -0.3125 -1.734375 -0.546875q-0.484375 -0.234375 -0.734375 -0.640625q-0.25 -0.40625 -0.25 -0.90625q0 -0.453125 0.203125 -0.828125q0.203125 -0.390625 0.5625 -0.640625q0.265625 -0.203125 0.71875 -0.328125q0.46875 -0.140625 1.0 -0.140625q0.78125 0 1.375 0.234375q0.609375 0.21875 0.890625 0.609375q0.296875 0.390625 0.40625 1.046875l-1.125 0.15625q-0.078125 -0.53125 -0.4375 -0.8125q-0.359375 -0.296875 -1.03125 -0.296875q-0.78125 0 -1.125 0.265625q-0.34375 0.25 -0.34375 0.609375q0 0.21875 0.140625 0.390625q0.140625 0.1875 0.4375 0.3125q0.171875 0.0625 1.015625 0.28125q1.21875 0.328125 1.6875 0.53125q0.484375 0.203125 0.75 0.609375q0.28125 0.390625 0.28125 0.96875q0 0.578125 -0.34375 1.078125q-0.328125 0.5 -0.953125 0.78125q-0.625 0.28125 -1.421875 0.28125q-1.3125 0 -2.0 -0.546875q-0.6875 -0.546875 -0.875 -1.625zm6.6953125 -1.359375q0 -1.875 1.03125 -2.765625q0.875 -0.75 2.125 -0.75q1.390625 0 2.265625 0.90625q0.890625 0.90625 0.890625 2.515625q0 1.296875 -0.390625 2.046875q-0.390625 0.75 -1.140625 1.171875q-0.75 0.40625 -1.625 0.40625q-1.421875 0 -2.296875 -0.90625q-0.859375 -0.90625 -0.859375 -2.625zm1.171875 0q0 1.296875 0.5625 1.953125q0.5625 0.640625 1.421875 0.640625q0.84375 0 1.40625 -0.640625q0.578125 -0.65625 0.578125 -1.984375q0 -1.25 -0.578125 -1.890625q-0.5625 -0.65625 -1.40625 -0.65625q-0.859375 0 -1.421875 0.640625q-0.5625 0.640625 -0.5625 1.9375zm11.084351 3.375l0 -0.984375q-0.796875 1.140625 -2.140625 1.140625q-0.59375 0 -1.125 -0.234375q-0.515625 -0.234375 -0.765625 -0.578125q-0.25 -0.34375 -0.34375 -0.84375q-0.078125 -0.328125 -0.078125 -1.0625l0 -4.171875l1.140625 0l0 3.734375q0 0.890625 0.078125 1.203125q0.109375 0.453125 0.453125 0.71875q0.34375 0.25 0.859375 0.25q0.515625 0 0.96875 -0.265625q0.453125 -0.265625 0.640625 -0.71875q0.1875 -0.453125 0.1875 -1.3125l0 -3.609375l1.140625 0l0 6.734375l-1.015625 0zm2.9749756 0l0 -6.734375l1.03125 0l0 1.015625q0.390625 -0.71875 0.71875 -0.9375q0.34375 -0.234375 0.734375 -0.234375q0.578125 0 1.171875 0.359375l-0.390625 1.0625q-0.421875 -0.25 -0.828125 -0.25q-0.375 0 -0.6875 0.234375q-0.296875 0.21875 -0.421875 0.625q-0.1875 0.609375 -0.1875 1.328125l0 3.53125l-1.140625 0zm8.84462 -2.46875l1.125 0.140625q-0.171875 1.171875 -0.9375 1.828125q-0.765625 0.65625 -1.859375 0.65625q-1.390625 0 -2.234375 -0.90625q-0.828125 -0.90625 -0.828125 -2.59375q0 -1.09375 0.359375 -1.90625q0.359375 -0.828125 1.09375 -1.234375q0.734375 -0.40625 1.609375 -0.40625q1.09375 0 1.796875 0.5625q0.703125 0.546875 0.890625 1.5625l-1.109375 0.171875q-0.15625 -0.671875 -0.5625 -1.015625q-0.390625 -0.34375 -0.96875 -0.34375q-0.859375 0 -1.40625 0.625q-0.53125 0.609375 -0.53125 1.953125q0 1.359375 0.515625 1.984375q0.515625 0.609375 1.359375 0.609375q0.671875 0 1.125 -0.40625q0.453125 -0.421875 0.5625 -1.28125zm6.88282 0.296875l1.1875 0.140625q-0.28125 1.046875 -1.046875 1.625q-0.75 0.5625 -1.9218826 0.5625q-1.484375 0 -2.359375 -0.90625q-0.859375 -0.921875 -0.859375 -2.5625q0 -1.703125 0.875 -2.640625q0.890625 -0.9375 2.28125 -0.9375q1.3593826 0 2.2031326 0.921875q0.859375 0.921875 0.859375 2.578125q0 0.109375 0 0.3125l-5.0312576 0q0.0625 1.109375 0.625 1.703125q0.5625 0.59375 1.40625 0.59375q0.640625 0 1.0781326 -0.328125q0.453125 -0.34375 0.703125 -1.0625zm-3.7500076 -1.84375l3.7656326 0q-0.078125 -0.859375 -0.4375 -1.28125q-0.5468826 -0.65625 -1.4062576 -0.65625q-0.796875 0 -1.328125 0.53125q-0.53125 0.515625 -0.59375 1.40625zm6.912483 4.015625l0 -9.3125l1.21875 0l0 9.3125l-1.21875 0zm3.4842377 0l0 -9.3125l3.203125 0q1.09375 0 1.65625 0.140625q0.8125 0.1875 1.375 0.671875q0.734375 0.609375 1.09375 1.578125q0.375 0.96875 0.375 2.21875q0 1.0625 -0.25 1.890625q-0.25 0.8125 -0.640625 1.34375q-0.390625 0.53125 -0.859375 0.84375q-0.453125 0.3125 -1.109375 0.46875q-0.640625 0.15625 -1.484375 0.15625l-3.359375 0zm1.234375 -1.09375l1.984375 0q0.921875 0 1.4375 -0.171875q0.53125 -0.171875 0.84375 -0.484375q0.4375 -0.4375 0.671875 -1.171875q0.25 -0.75 0.25 -1.796875q0 -1.46875 -0.484375 -2.25q-0.46875 -0.78125 -1.15625 -1.046875q-0.5 -0.1875 -1.59375 -0.1875l-1.953125 0l0 7.109375z" fill-rule="nonzero"></path><path fill="#000000" fill-opacity="0.0" d="m495.6719 317.24933l400.00003 0l0 46.677185l-400.00003 0z" fill-rule="nonzero"></path><path fill="#000000" d="m512.37506 339.16934l0 -2.296875l5.921875 0l0 5.421875q-0.859375 0.828125 -2.5 1.46875q-1.640625 0.640625 -3.3125 0.640625q-2.1406555 0 -3.7344055 -0.890625q-1.578125 -0.90625 -2.375 -2.5625q-0.796875 -1.671875 -0.796875 -3.625q0 -2.125 0.890625 -3.78125q0.890625 -1.65625 2.609375 -2.53125q1.3125 -0.671875 3.2500305 -0.671875q2.546875 0 3.96875 1.0625q1.421875 1.0625 1.828125 2.9375l-2.734375 0.5q-0.28125 -1.0 -1.078125 -1.578125q-0.796875 -0.578125 -1.984375 -0.578125q-1.7969055 0 -2.8594055 1.140625q-1.0625 1.140625 -1.0625 3.390625q0 2.421875 1.078125 3.640625q1.078125 1.203125 2.8281555 1.203125q0.859375 0 1.71875 -0.34375q0.875 -0.34375 1.5 -0.828125l0 -1.71875l-3.15625 0zm8.183289 5.0l0 -13.59375l10.09375 0l0 2.296875l-7.34375 0l0 3.015625l6.828125 0l0 2.28125l-6.828125 0l0 3.703125l7.609375 0l0 2.296875l-10.359375 0zm15.5060425 0l0 -11.296875l-4.03125 0l0 -2.296875l10.8125 0l0 2.296875l-4.03125 0l0 11.296875l-2.75 0z" fill-rule="nonzero"></path><path fill="#000000" d="m549.7062 344.16934l0 -13.59375l9.84375 0l0 1.59375l-8.046875 0l0 4.171875l7.53125 0l0 1.59375l-7.53125 0l0 4.625l8.359375 0l0 1.609375l-10.15625 0zm12.1936035 0l0 -9.859375l1.5 0l0 1.40625q1.09375 -1.625 3.140625 -1.625q0.890625 0 1.640625 0.328125q0.75 0.3125 1.109375 0.84375q0.375 0.515625 0.53125 1.21875q0.09375 0.46875 0.09375 1.625l0 6.0625l-1.671875 0l0 -6.0q0 -1.015625 -0.203125 -1.515625q-0.1875 -0.515625 -0.6875 -0.8125q-0.5 -0.296875 -1.171875 -0.296875q-1.0625 0 -1.84375 0.671875q-0.765625 0.671875 -0.765625 2.578125l0 5.375l-1.671875 0zm16.766357 0l0 -1.25q-0.9375 1.46875 -2.75 1.46875q-1.171875 0 -2.171875 -0.640625q-0.984375 -0.65625 -1.53125 -1.8125q-0.53125 -1.171875 -0.53125 -2.6875q0 -1.46875 0.484375 -2.671875q0.5 -1.203125 1.46875 -1.84375q0.984375 -0.640625 2.203125 -0.640625q0.890625 0 1.578125 0.375q0.703125 0.375 1.140625 0.984375l0 -4.875l1.65625 0l0 13.59375l-1.546875 0zm-5.28125 -4.921875q0 1.890625 0.796875 2.828125q0.8125 0.9375 1.890625 0.9375q1.09375 0 1.859375 -0.890625q0.765625 -0.890625 0.765625 -2.734375q0 -2.015625 -0.78125 -2.953125q-0.78125 -0.953125 -1.921875 -0.953125q-1.109375 0 -1.859375 0.90625q-0.75 0.90625 -0.75 2.859375zm9.266296 8.703125l0 -13.640625l1.53125 0l0 1.28125q0.53125 -0.75 1.203125 -1.125q0.6875 -0.375 1.640625 -0.375q1.265625 0 2.234375 0.65625q0.96875 0.640625 1.453125 1.828125q0.5 1.1875 0.5 2.59375q0 1.515625 -0.546875 2.734375q-0.546875 1.203125 -1.578125 1.84375q-1.03125 0.640625 -2.171875 0.640625q-0.84375 0 -1.515625 -0.34375q-0.65625 -0.359375 -1.078125 -0.890625l0 4.796875l-1.671875 0zm1.515625 -8.65625q0 1.90625 0.765625 2.8125q0.78125 0.90625 1.875 0.90625q1.109375 0 1.890625 -0.9375q0.796875 -0.9375 0.796875 -2.921875q0 -1.875 -0.78125 -2.8125q-0.765625 -0.9375 -1.84375 -0.9375q-1.0625 0 -1.890625 1.0q-0.8125 1.0 -0.8125 2.890625zm8.235107 -0.046875q0 -2.734375 1.53125 -4.0625q1.265625 -1.09375 3.09375 -1.09375q2.03125 0 3.3125 1.34375q1.296875 1.328125 1.296875 3.671875q0 1.90625 -0.578125 3.0q-0.5625 1.078125 -1.65625 1.6875q-1.078125 0.59375 -2.375 0.59375q-2.0625 0 -3.34375 -1.328125q-1.28125 -1.328125 -1.28125 -3.8125zm1.71875 0q0 1.890625 0.828125 2.828125q0.828125 0.9375 2.078125 0.9375q1.25 0 2.0625 -0.9375q0.828125 -0.953125 0.828125 -2.890625q0 -1.828125 -0.828125 -2.765625q-0.828125 -0.9375 -2.0625 -0.9375q-1.25 0 -2.078125 0.9375q-0.828125 0.9375 -0.828125 2.828125zm9.297607 -6.765625l0 -1.90625l1.671875 0l0 1.90625l-1.671875 0zm0 11.6875l0 -9.859375l1.671875 0l0 9.859375l-1.671875 0zm4.1292114 0l0 -9.859375l1.5 0l0 1.40625q1.09375 -1.625 3.140625 -1.625q0.890625 0 1.640625 0.328125q0.75 0.3125 1.109375 0.84375q0.375 0.515625 0.53125 1.21875q0.09375 0.46875 0.09375 1.625l0 6.0625l-1.671875 0l0 -6.0q0 -1.015625 -0.203125 -1.515625q-0.1875 -0.515625 -0.6875 -0.8125q-0.5 -0.296875 -1.171875 -0.296875q-1.0625 0 -1.84375 0.671875q-0.765625 0.671875 -0.765625 2.578125l0 5.375l-1.671875 0zm14.031921 -1.5l0.234375 1.484375q-0.703125 0.140625 -1.265625 0.140625q-0.90625 0 -1.40625 -0.28125q-0.5 -0.296875 -0.703125 -0.75q-0.203125 -0.46875 -0.203125 -1.984375l0 -5.65625l-1.234375 0l0 -1.3125l1.234375 0l0 -2.4375l1.65625 -1.0l0 3.4375l1.6875 0l0 1.3125l-1.6875 0l0 5.75q0 0.71875 0.078125 0.921875q0.09375 0.203125 0.296875 0.328125q0.203125 0.125 0.578125 0.125q0.265625 0 0.734375 -0.078125zm7.3552246 1.5l-1.671875 0l0 -10.640625q-0.59375 0.578125 -1.578125 1.15625q-0.984375 0.5625 -1.765625 0.859375l0 -1.625q1.40625 -0.65625 2.453125 -1.59375q1.046875 -0.9375 1.484375 -1.8125l1.078125 0l0 13.65625zm3.2975464 0.234375l3.9375 -14.0625l1.34375 0l-3.9375 14.0625l-1.34375 0zm5.9802246 -3.828125l1.671875 -0.21875q0.28125 1.421875 0.96875 2.046875q0.703125 0.625 1.6875 0.625q1.1875 0 2.0 -0.8125q0.8125 -0.828125 0.8125 -2.03125q0 -1.140625 -0.765625 -1.890625q-0.75 -0.75 -1.90625 -0.75q-0.46875 0 -1.171875 0.1875l0.1875 -1.46875q0.15625 0.015625 0.265625 0.015625q1.0625 0 1.90625 -0.546875q0.859375 -0.5625 0.859375 -1.71875q0 -0.921875 -0.625 -1.515625q-0.609375 -0.609375 -1.59375 -0.609375q-0.96875 0 -1.625 0.609375q-0.640625 0.609375 -0.828125 1.84375l-1.671875 -0.296875q0.296875 -1.6875 1.375 -2.609375q1.09375 -0.921875 2.71875 -0.921875q1.109375 0 2.046875 0.484375q0.9375 0.46875 1.421875 1.296875q0.5 0.828125 0.5 1.75q0 0.890625 -0.46875 1.609375q-0.46875 0.71875 -1.40625 1.15625q1.21875 0.265625 1.875 1.15625q0.671875 0.875 0.671875 2.1875q0 1.78125 -1.296875 3.015625q-1.296875 1.234375 -3.28125 1.234375q-1.796875 0 -2.984375 -1.0625q-1.171875 -1.0625 -1.34375 -2.765625zm10.375671 0l1.671875 -0.21875q0.28125 1.421875 0.96875 2.046875q0.703125 0.625 1.6875 0.625q1.1875 0 2.0 -0.8125q0.8125 -0.828125 0.8125 -2.03125q0 -1.140625 -0.765625 -1.890625q-0.75 -0.75 -1.90625 -0.75q-0.46875 0 -1.171875 0.1875l0.1875 -1.46875q0.15625 0.015625 0.265625 0.015625q1.0625 0 1.90625 -0.546875q0.859375 -0.5625 0.859375 -1.71875q0 -0.921875 -0.625 -1.515625q-0.609375 -0.609375 -1.59375 -0.609375q-0.96875 0 -1.625 0.609375q-0.640625 0.609375 -0.828125 1.84375l-1.671875 -0.296875q0.296875 -1.6875 1.375 -2.609375q1.09375 -0.921875 2.71875 -0.921875q1.109375 0 2.046875 0.484375q0.9375 0.46875 1.421875 1.296875q0.5 0.828125 0.5 1.75q0 0.890625 -0.46875 1.609375q-0.46875 0.71875 -1.40625 1.15625q1.21875 0.265625 1.875 1.15625q0.671875 0.875 0.671875 2.1875q0 1.78125 -1.296875 3.015625q-1.296875 1.234375 -3.28125 1.234375q-1.796875 0 -2.984375 -1.0625q-1.171875 -1.0625 -1.34375 -2.765625zm10.360107 -3.109375q0 -2.421875 0.5 -3.890625q0.5 -1.46875 1.46875 -2.265625q0.984375 -0.796875 2.46875 -0.796875q1.09375 0 1.921875 0.4375q0.828125 0.4375 1.359375 1.28125q0.546875 0.828125 0.84375 2.015625q0.3125 1.1875 0.3125 3.21875q0 2.390625 -0.5 3.859375q-0.484375 1.46875 -1.46875 2.28125q-0.96875 0.796875 -2.46875 0.796875q-1.96875 0 -3.078125 -1.40625q-1.359375 -1.703125 -1.359375 -5.53125zm1.71875 0q0 3.34375 0.78125 4.453125q0.796875 1.109375 1.9375 1.109375q1.15625 0 1.9375 -1.109375q0.78125 -1.125 0.78125 -4.453125q0 -3.359375 -0.78125 -4.46875q-0.78125 -1.109375 -1.953125 -1.109375q-1.15625 0 -1.828125 0.984375q-0.875 1.234375 -0.875 4.59375zm8.672607 3.109375l1.671875 -0.21875q0.28125 1.421875 0.96875 2.046875q0.703125 0.625 1.6875 0.625q1.1875 0 2.0 -0.8125q0.8125 -0.828125 0.8125 -2.03125q0 -1.140625 -0.765625 -1.890625q-0.75 -0.75 -1.90625 -0.75q-0.46875 0 -1.171875 0.1875l0.1875 -1.46875q0.15625 0.015625 0.265625 0.015625q1.0625 0 1.90625 -0.546875q0.859375 -0.5625 0.859375 -1.71875q0 -0.921875 -0.625 -1.515625q-0.609375 -0.609375 -1.59375 -0.609375q-0.96875 0 -1.625 0.609375q-0.640625 0.609375 -0.828125 1.84375l-1.671875 -0.296875q0.296875 -1.6875 1.375 -2.609375q1.09375 -0.921875 2.71875 -0.921875q1.109375 0 2.046875 0.484375q0.9375 0.46875 1.421875 1.296875q0.5 0.828125 0.5 1.75q0 0.890625 -0.46875 1.609375q-0.46875 0.71875 -1.40625 1.15625q1.21875 0.265625 1.875 1.15625q0.671875 0.875 0.671875 2.1875q0 1.78125 -1.296875 3.015625q-1.296875 1.234375 -3.28125 1.234375q-1.796875 0 -2.984375 -1.0625q-1.171875 -1.0625 -1.34375 -2.765625zm9.578857 3.828125l3.9375 -14.0625l1.34375 0l-3.9375 14.0625l-1.34375 0zm5.9645386 -6.9375q0 -2.421875 0.5 -3.890625q0.5 -1.46875 1.46875 -2.265625q0.984375 -0.796875 2.46875 -0.796875q1.09375 0 1.921875 0.4375q0.828125 0.4375 1.359375 1.28125q0.546875 0.828125 0.84375 2.015625q0.3125 1.1875 0.3125 3.21875q0 2.390625 -0.5 3.859375q-0.484375 1.46875 -1.46875 2.28125q-0.96875 0.796875 -2.46875 0.796875q-1.96875 0 -3.078125 -1.40625q-1.359375 -1.703125 -1.359375 -5.53125zm1.71875 0q0 3.34375 0.78125 4.453125q0.796875 1.109375 1.9375 1.109375q1.15625 0 1.9375 -1.109375q0.78125 -1.125 0.78125 -4.453125q0 -3.359375 -0.78125 -4.46875q-0.78125 -1.109375 -1.953125 -1.109375q-1.15625 0 -1.828125 0.984375q-0.875 1.234375 -0.875 4.59375zm7.8757324 6.9375l3.9375 -14.0625l1.34375 0l-3.9375 14.0625l-1.34375 0zm5.9645386 -3.796875l1.765625 -0.15625q0.1875 1.28125 0.890625 1.9375q0.71875 0.640625 1.71875 0.640625q1.203125 0 2.03125 -0.90625q0.84375 -0.90625 0.84375 -2.421875q0 -1.421875 -0.8125 -2.25q-0.796875 -0.828125 -2.09375 -0.828125q-0.796875 0 -1.453125 0.375q-0.640625 0.359375 -1.015625 0.953125l-1.578125 -0.203125l1.328125 -7.0l6.765625 0l0 1.609375l-5.4375 0l-0.734375 3.640625q1.234375 -0.84375 2.578125 -0.84375q1.78125 0 3.0 1.234375q1.234375 1.234375 1.234375 3.171875q0 1.84375 -1.078125 3.1875q-1.3125 1.65625 -3.578125 1.65625q-1.859375 0 -3.03125 -1.03125q-1.171875 -1.046875 -1.34375 -2.765625zm19.047607 -6.703125l-1.65625 0.125q-0.21875 -0.984375 -0.640625 -1.421875q-0.671875 -0.71875 -1.65625 -0.71875q-0.8125 0 -1.40625 0.4375q-0.796875 0.578125 -1.25 1.6875q-0.453125 1.09375 -0.46875 3.140625q0.609375 -0.921875 1.46875 -1.359375q0.875 -0.453125 1.828125 -0.453125q1.671875 0 2.84375 1.234375q1.171875 1.234375 1.171875 3.171875q0 1.28125 -0.546875 2.390625q-0.546875 1.09375 -1.515625 1.6875q-0.96875 0.578125 -2.1875 0.578125q-2.09375 0 -3.40625 -1.53125q-1.3125 -1.546875 -1.3125 -5.0625q0 -3.953125 1.453125 -5.734375q1.265625 -1.5625 3.421875 -1.5625q1.609375 0 2.625 0.90625q1.03125 0.890625 1.234375 2.484375zm-6.8125 5.859375q0 0.859375 0.359375 1.65625q0.375 0.78125 1.03125 1.203125q0.65625 0.40625 1.375 0.40625q1.0625 0 1.8125 -0.84375q0.765625 -0.859375 0.765625 -2.328125q0 -1.40625 -0.75 -2.21875q-0.75 -0.8125 -1.890625 -0.8125q-1.125 0 -1.921875 0.8125q-0.78125 0.8125 -0.78125 2.125zm8.516296 -2.296875q0 -2.421875 0.5 -3.890625q0.5 -1.46875 1.46875 -2.265625q0.984375 -0.796875 2.46875 -0.796875q1.09375 0 1.921875 0.4375q0.828125 0.4375 1.359375 1.28125q0.546875 0.828125 0.84375 2.015625q0.3125 1.1875 0.3125 3.21875q0 2.390625 -0.5 3.859375q-0.484375 1.46875 -1.46875 2.28125q-0.96875 0.796875 -2.46875 0.796875q-1.96875 0 -3.078125 -1.40625q-1.359375 -1.703125 -1.359375 -5.53125zm1.71875 0q0 3.34375 0.78125 4.453125q0.796875 1.109375 1.9375 1.109375q1.15625 0 1.9375 -1.109375q0.78125 -1.125 0.78125 -4.453125q0 -3.359375 -0.78125 -4.46875q-0.78125 -1.109375 -1.953125 -1.109375q-1.15625 0 -1.828125 0.984375q-0.875 1.234375 -0.875 4.59375zm17.438232 5.09375l0 1.609375l-8.984375 0q-0.015625 -0.609375 0.1875 -1.15625q0.34375 -0.921875 1.09375 -1.8125q0.765625 -0.890625 2.1875 -2.0625q2.21875 -1.8125 3.0 -2.875q0.78125 -1.0625 0.78125 -2.015625q0 -0.984375 -0.71875 -1.671875q-0.703125 -0.6875 -1.84375 -0.6875q-1.203125 0 -1.9375 0.734375q-0.71875 0.71875 -0.71875 2.0l-1.71875 -0.171875q0.171875 -1.921875 1.328125 -2.921875q1.15625 -1.015625 3.09375 -1.015625q1.953125 0 3.09375 1.09375q1.140625 1.078125 1.140625 2.6875q0 0.8125 -0.34375 1.609375q-0.328125 0.78125 -1.109375 1.65625q-0.765625 0.859375 -2.5625 2.390625q-1.5 1.265625 -1.9375 1.71875q-0.421875 0.4375 -0.703125 0.890625l6.671875 0z" fill-rule="nonzero"></path><path fill="#000000" fill-opacity="0.0" d="m445.76117 287.11832c12.47757 0 18.714966 13.370087 24.95514 26.740173c6.240143 13.370056 12.483032 26.740143 24.966095 26.740143" fill-rule="nonzero"></path><path stroke="#000000" stroke-width="1.0" stroke-linejoin="round" stroke-linecap="butt" d="m445.76117 287.11832c12.477539 0 18.714966 13.370087 24.955109 26.740143c3.1200867 6.6850586 6.2408752 13.370087 10.141998 18.38388c1.950531 2.5068665 4.0961914 4.5959473 6.5343933 6.058319c0.6095886 0.36557007 1.2374268 0.6919861 1.8850403 0.97598267c0.16192627 0.07098389 0.32507324 0.13931274 0.48947144 0.20498657l0.018737793 0.007293701" fill-rule="evenodd"></path><path fill="#000000" stroke="#000000" stroke-width="1.0" stroke-linecap="butt" d="m489.48044 341.11215l4.7652893 -0.783905l-4.154297 -2.462555z" fill-rule="evenodd"></path></g></svg>

